<svg xmlns="http://www.w3.org/2000/svg" width="368.6" height="131.387" viewBox="0 0 368.6 131.387">
  <g id="Grupo_2678" data-name="Grupo 2678" transform="translate(-71.931 -89.185)">
    <path id="Trazado_7045" data-name="Trazado 7045" d="M383.187,368.117c-2.712,0-271.615-.511-310.5-.259h0a.752.752,0,0,1,0-1.5c38.894-.252,307.8.256,310.512.259a.751.751,0,1,1,0,1.5Z" transform="translate(0 -172.612)" fill="#000e23"/>
    <path id="Trazado_7046" data-name="Trazado 7046" d="M383.187,368.117c-2.712,0-271.615-.511-310.5-.259h0a.752.752,0,0,1,0-1.5c38.894-.252,307.8.256,310.512.259a.751.751,0,1,1,0,1.5Z" transform="translate(0 -172.612)" fill="rgba(0,0,0,0.2)"/>
    <path id="Trazado_7047" data-name="Trazado 7047" d="M470.464,330.389c-.631,0-1.217,0-1.758-.015-5.188-.1-10.1-.669-14.854-1.217a117.465,117.465,0,0,0-18.37-1.146c-.872.034-1.762.083-2.622.132a49.688,49.688,0,0,1-7.483.041,20.972,20.972,0,0,1-6.026-1.586c-1.668-.729-3.825-1.991-4.61-3.867l1.247-.522c.653,1.563,4.132,4.111,9.52,4.629a48.58,48.58,0,0,0,7.28-.045c.868-.049,1.766-.1,2.649-.132a120.346,120.346,0,0,1,18.573,1.153c4.718.545,9.6,1.112,14.723,1.21,2.742.052,6.852-.034,12.217-.263l24.13-1.018a75.705,75.705,0,0,0,10.008-1.12c.526-.094,1.04-.158,1.536-.222,2.7-.346,4.839-.617,6.405-5.182l1.277.44c-1.841,5.362-4.722,5.73-7.513,6.087-.481.06-.977.124-1.473.214a76.474,76.474,0,0,1-10.188,1.138L481,330.119c-4.414.188-7.889.278-10.541.278Z" transform="translate(-213.544 -144.541)" fill="#000e23"/>
    <path id="Trazado_7048" data-name="Trazado 7048" d="M470.464,330.389c-.631,0-1.217,0-1.758-.015-5.188-.1-10.1-.669-14.854-1.217a117.465,117.465,0,0,0-18.37-1.146c-.872.034-1.762.083-2.622.132a49.688,49.688,0,0,1-7.483.041,20.972,20.972,0,0,1-6.026-1.586c-1.668-.729-3.825-1.991-4.61-3.867l1.247-.522c.653,1.563,4.132,4.111,9.52,4.629a48.58,48.58,0,0,0,7.28-.045c.868-.049,1.766-.1,2.649-.132a120.346,120.346,0,0,1,18.573,1.153c4.718.545,9.6,1.112,14.723,1.21,2.742.052,6.852-.034,12.217-.263l24.13-1.018a75.705,75.705,0,0,0,10.008-1.12c.526-.094,1.04-.158,1.536-.222,2.7-.346,4.839-.617,6.405-5.182l1.277.44c-1.841,5.362-4.722,5.73-7.513,6.087-.481.06-.977.124-1.473.214a76.474,76.474,0,0,1-10.188,1.138L481,330.119c-4.414.188-7.889.278-10.541.278Z" transform="translate(-213.544 -144.541)" fill="rgba(0,0,0,0.2)"/>
    <path id="Trazado_7049" data-name="Trazado 7049" d="M455.821,202.015h60.712a1.38,1.38,0,0,1,1.259.951l8.066,21.406a1.792,1.792,0,0,1,.113.563l.8,22.688a1.5,1.5,0,0,1-1.371,1.642H517a1.363,1.363,0,0,1-1.229-.883c-1.048-2.469-4.1-9.345-5.992-10.431-2.014-1.157-10.008-.331-12.258-.285a1.273,1.273,0,0,0-.92.436c-1.161,1.281-5.417,4.655-7.713,10.265a1.4,1.4,0,0,1-1.206.928c-11.661.4-36.3.06-41.41-.018a1.383,1.383,0,0,1-1.259-1.018c-.894-2.72-3.49-10.07-5.6-10.479-2.228-.428-11.225-.124-13.776-.026a1.332,1.332,0,0,0-1.071.661l-6.424,10.4a1.322,1.322,0,0,1-1.116.665H410.86a1.485,1.485,0,0,1-1.371-1.578V231.368a1.484,1.484,0,0,1,1.371-1.578h1.348a1.389,1.389,0,0,0,1.266-1.034A4.16,4.16,0,0,1,417,225.744c3.111-.4,19.715-1.913,23.1-2.221a1.33,1.33,0,0,0,.973-.605l13.667-20.3a1.314,1.314,0,0,1,1.082-.612Z" transform="translate(-210.273 -70.278)" fill="#f7cbcb"/>
    <g id="Grupo_2678-2" data-name="Grupo 2678" transform="translate(285.28 136.014)" opacity="0.2">
      <path id="Trazado_7050" data-name="Trazado 7050" d="M637.788,215.511,641,227.889a1.2,1.2,0,0,0,1.082,1h17.469c.8,0,1.356-1.037,1.059-2l-3.9-12.6a1.178,1.178,0,0,0-1.074-.92l-16.778.222C638.085,213.606,637.544,214.576,637.788,215.511Z" transform="translate(-637.729 -213.374)" fill="#000e23"/>
      <path id="Trazado_7051" data-name="Trazado 7051" d="M637.788,215.511,641,227.889a1.2,1.2,0,0,0,1.082,1h17.469c.8,0,1.356-1.037,1.059-2l-3.9-12.6a1.178,1.178,0,0,0-1.074-.92l-16.778.222C638.085,213.606,637.544,214.576,637.788,215.511Z" transform="translate(-637.729 -213.374)" fill="rgba(0,0,0,0.2)"/>
    </g>
    <g id="Grupo_2679" data-name="Grupo 2679" transform="translate(231.126 134.082)" opacity="0.2">
      <path id="Trazado_7052" data-name="Trazado 7052" d="M537.124,252.563H500.6a2.047,2.047,0,0,1-1.893-1.387L494.263,239.3a2.389,2.389,0,0,1-.15-.845V226.517a2.382,2.382,0,0,1,.41-1.337l11-16.033a2,2,0,0,1,1.638-.894h34.46a2.061,2.061,0,0,1,1.954,1.567l5.117,17.874a2.463,2.463,0,0,1,.094.665v8.548a2.389,2.389,0,0,1-.432,1.375l-9.614,13.425a1.975,1.975,0,0,1-1.612.857ZM507.16,209.6a.653.653,0,0,0-.526.308l-11,16.033a1.034,1.034,0,0,0-.169.575v11.938a1.04,1.04,0,0,0,.067.372l4.448,11.878a.714.714,0,0,0,.631.507h36.519a.636.636,0,0,0,.515-.293l9.613-13.425a1.013,1.013,0,0,0,.181-.586v-8.548a1.084,1.084,0,0,0-.041-.293l-5.117-17.874a.736.736,0,0,0-.654-.586h-34.46Z" transform="translate(-494.113 -208.252)" fill="#000e23"/>
      <path id="Trazado_7053" data-name="Trazado 7053" d="M537.124,252.563H500.6a2.047,2.047,0,0,1-1.893-1.387L494.263,239.3a2.389,2.389,0,0,1-.15-.845V226.517a2.382,2.382,0,0,1,.41-1.337l11-16.033a2,2,0,0,1,1.638-.894h34.46a2.061,2.061,0,0,1,1.954,1.567l5.117,17.874a2.463,2.463,0,0,1,.094.665v8.548a2.389,2.389,0,0,1-.432,1.375l-9.614,13.425a1.975,1.975,0,0,1-1.612.857ZM507.16,209.6a.653.653,0,0,0-.526.308l-11,16.033a1.034,1.034,0,0,0-.169.575v11.938a1.04,1.04,0,0,0,.067.372l4.448,11.878a.714.714,0,0,0,.631.507h36.519a.636.636,0,0,0,.515-.293l9.613-13.425a1.013,1.013,0,0,0,.181-.586v-8.548a1.084,1.084,0,0,0-.041-.293l-5.117-17.874a.736.736,0,0,0-.654-.586h-34.46Z" transform="translate(-494.113 -208.252)" fill="rgba(0,0,0,0.2)"/>
    </g>
    <path id="Trazado_7054" data-name="Trazado 7054" d="M500.714,330.772h41.331a1.372,1.372,0,0,0,1.371-1.371v-.1a1.371,1.371,0,0,0-1.371-1.371H500.714a1.371,1.371,0,0,0-1.371,1.371v.1A1.372,1.372,0,0,0,500.714,330.772Z" transform="translate(-266.245 -148.719)" fill="#000e23"/>
    <path id="Trazado_7055" data-name="Trazado 7055" d="M500.714,330.772h41.331a1.372,1.372,0,0,0,1.371-1.371v-.1a1.371,1.371,0,0,0-1.371-1.371H500.714a1.371,1.371,0,0,0-1.371,1.371v.1A1.372,1.372,0,0,0,500.714,330.772Z" transform="translate(-266.245 -148.719)" fill="rgba(0,0,0,0.2)"/>
    <path id="Trazado_7056" data-name="Trazado 7056" d="M632.53,307.3a10.626,10.626,0,1,0,10.624,10.626A10.636,10.636,0,0,0,632.53,307.3Z" transform="translate(-342.592 -135.87)" fill="#000e23"/>
    <path id="Trazado_7057" data-name="Trazado 7057" d="M632.53,307.3a10.626,10.626,0,1,0,10.624,10.626A10.636,10.636,0,0,0,632.53,307.3Z" transform="translate(-342.592 -135.87)" fill="rgba(0,0,0,0.2)"/>
    <path id="Trazado_7058" data-name="Trazado 7058" d="M630.3,303.713a11.975,11.975,0,1,0,11.973,11.975A11.989,11.989,0,0,0,630.3,303.713Zm0,22.6a10.626,10.626,0,1,1,10.624-10.626A10.636,10.636,0,0,1,630.3,326.314Z" transform="translate(-340.364 -133.635)" fill="#000e23"/>
    <path id="Trazado_7059" data-name="Trazado 7059" d="M630.3,303.713a11.975,11.975,0,1,0,11.973,11.975A11.989,11.989,0,0,0,630.3,303.713Zm0,22.6a10.626,10.626,0,1,1,10.624-10.626A10.636,10.636,0,0,1,630.3,326.314Z" transform="translate(-340.364 -133.635)" fill="rgba(0,0,0,0.2)"/>
    <path id="Trazado_7060" data-name="Trazado 7060" d="M448.378,307.3A10.626,10.626,0,1,0,459,317.927,10.636,10.636,0,0,0,448.378,307.3Z" transform="translate(-227.88 -135.87)" fill="#000e23"/>
    <path id="Trazado_7061" data-name="Trazado 7061" d="M448.378,307.3A10.626,10.626,0,1,0,459,317.927,10.636,10.636,0,0,0,448.378,307.3Z" transform="translate(-227.88 -135.87)" fill="rgba(0,0,0,0.2)"/>
    <path id="Trazado_7062" data-name="Trazado 7062" d="M446.151,303.713a11.975,11.975,0,1,0,11.973,11.975A11.989,11.989,0,0,0,446.151,303.713Zm0,22.6a10.626,10.626,0,1,1,10.624-10.626A10.636,10.636,0,0,1,446.151,326.314Z" transform="translate(-225.652 -133.635)" fill="#000e23"/>
    <path id="Trazado_7063" data-name="Trazado 7063" d="M446.151,303.713a11.975,11.975,0,1,0,11.973,11.975A11.989,11.989,0,0,0,446.151,303.713Zm0,22.6a10.626,10.626,0,1,1,10.624-10.626A10.636,10.636,0,0,1,446.151,326.314Z" transform="translate(-225.652 -133.635)" fill="rgba(0,0,0,0.2)"/>
    <path id="Trazado_7064" data-name="Trazado 7064" d="M407.354,286.738v-4.389h-2.716v9.405h.481l.038.883,2.34-.808v-4.171Z" transform="translate(-207.251 -120.326)" fill="#000e23"/>
    <path id="Trazado_7065" data-name="Trazado 7065" d="M407.354,286.738v-4.389h-2.716v9.405h.481l.038.883,2.34-.808v-4.171Z" transform="translate(-207.251 -120.326)" fill="rgba(0,0,0,0.2)"/>
    <path id="Trazado_7066" data-name="Trazado 7066" d="M707.544,266.505a4.565,4.565,0,0,0,2.742,1.086.627.627,0,0,1,.477.143.585.585,0,0,1,.12.3,11.029,11.029,0,0,1-.169,3.325,34.124,34.124,0,0,0-.319,4.422.428.428,0,0,1-.049.248c-.1.158-.334.139-.515.1a29.94,29.94,0,0,0-3.61-.534,1.352,1.352,0,0,1-1.239-1.327c0-.09,0-.18-.008-.27a30.086,30.086,0,0,0,3.242-.072c-.383-1.462-.5-6.233-.834-6.8" transform="translate(-394.338 -110.457)" fill="#000e23"/>
    <path id="Trazado_7067" data-name="Trazado 7067" d="M707.544,266.505a4.565,4.565,0,0,0,2.742,1.086.627.627,0,0,1,.477.143.585.585,0,0,1,.12.3,11.029,11.029,0,0,1-.169,3.325,34.124,34.124,0,0,0-.319,4.422.428.428,0,0,1-.049.248c-.1.158-.334.139-.515.1a29.94,29.94,0,0,0-3.61-.534,1.352,1.352,0,0,1-1.239-1.327c0-.09,0-.18-.008-.27a30.086,30.086,0,0,0,3.242-.072c-.383-1.462-.5-6.233-.834-6.8" transform="translate(-394.338 -110.457)" fill="rgba(0,0,0,0.2)"/>
    <path id="Trazado_7068" data-name="Trazado 7068" d="M514.284,233.589h-.045l-29.851-.361a2.609,2.609,0,0,1-2.506-1.454,1.709,1.709,0,0,1,.5-1.9L493.9,219.122a3.028,3.028,0,0,1,2.051-.736H514.28c1.492,0,2.656.9,2.656,2.048v11.111a1.8,1.8,0,0,1-.556,1.266,2.985,2.985,0,0,1-2.1.782ZM483.3,230.857c-.237.222-.181.372-.158.428a1.351,1.351,0,0,0,1.262.59l29.851.361a1.682,1.682,0,0,0,1.176-.391.463.463,0,0,0,.158-.3V220.43c0-.323-.571-.7-1.308-.7H495.951a1.724,1.724,0,0,0-1.131.372L483.3,230.853Z" transform="translate(-255.298 -80.482)" fill="#000e23"/>
    <path id="Trazado_7069" data-name="Trazado 7069" d="M514.284,233.589h-.045l-29.851-.361a2.609,2.609,0,0,1-2.506-1.454,1.709,1.709,0,0,1,.5-1.9L493.9,219.122a3.028,3.028,0,0,1,2.051-.736H514.28c1.492,0,2.656.9,2.656,2.048v11.111a1.8,1.8,0,0,1-.556,1.266,2.985,2.985,0,0,1-2.1.782ZM483.3,230.857c-.237.222-.181.372-.158.428a1.351,1.351,0,0,0,1.262.59l29.851.361a1.682,1.682,0,0,0,1.176-.391.463.463,0,0,0,.158-.3V220.43c0-.323-.571-.7-1.308-.7H495.951a1.724,1.724,0,0,0-1.131.372L483.3,230.853Z" transform="translate(-255.298 -80.482)" fill="rgba(0,0,0,0.2)"/>
    <path id="Trazado_7070" data-name="Trazado 7070" d="M425.437,280.918l-.237,3.78,6.83.105a1.819,1.819,0,0,0,.357-.026v-3.791l-6.95-.072Z" transform="translate(-220.06 -119.433)" fill="#fff"/>
    <path id="Trazado_7071" data-name="Trazado 7071" d="M444.624,279.334c-.15,0-.3,0-.455,0a.619.619,0,0,0,.023.331v-.049h.346l.282-.173v-.03c-.038-.064-.124-.071-.2-.071Z" transform="translate(-231.868 -118.446)" fill="#fff"/>
    <path id="Trazado_7072" data-name="Trazado 7072" d="M431.388,278.363a.752.752,0,0,0-.075-.537.848.848,0,0,0-.774-.41l-7.6-.079a1.012,1.012,0,0,0-1.127,1.044l-.278,4.4a.906.906,0,0,0,.954,1.041l7.228.113h.1a1.374,1.374,0,0,0,1.63-1.469V278.37l-.06,0Zm-1.288,4.186a1.551,1.551,0,0,1-.357.026l-6.83-.105.237-3.78,6.95.072v3.787Z" transform="translate(-217.776 -117.204)" fill="#000e23"/>
    <path id="Trazado_7073" data-name="Trazado 7073" d="M431.388,278.363a.752.752,0,0,0-.075-.537.848.848,0,0,0-.774-.41l-7.6-.079a1.012,1.012,0,0,0-1.127,1.044l-.278,4.4a.906.906,0,0,0,.954,1.041l7.228.113h.1a1.374,1.374,0,0,0,1.63-1.469V278.37l-.06,0Zm-1.288,4.186a1.551,1.551,0,0,1-.357.026l-6.83-.105.237-3.78,6.95.072v3.787Z" transform="translate(-217.776 -117.204)" fill="rgba(0,0,0,0.2)"/>
    <path id="Trazado_7074" data-name="Trazado 7074" d="M451.678,331.027a8.422,8.422,0,1,1,8.265-8.421A8.353,8.353,0,0,1,451.678,331.027Zm0-15.492a7.073,7.073,0,1,0,6.913,7.071A7,7,0,0,0,451.678,315.535Z" transform="translate(-231.405 -140.158)" fill="#fff"/>
    <path id="Trazado_7075" data-name="Trazado 7075" d="M636.507,331.7a8.422,8.422,0,1,1,8.265-8.421A8.353,8.353,0,0,1,636.507,331.7Zm0-15.492a7.073,7.073,0,1,0,6.913,7.072A7,7,0,0,0,636.507,316.2Z" transform="translate(-346.539 -140.575)" fill="#fff"/>
    <path id="Trazado_7076" data-name="Trazado 7076" d="M1024.684,347.635l.841-.518,5.268-.117s2.7.252,2.673,2.266-9.155.823-9.155.823l-.52-1.691.894-.759Z" transform="translate(-592.935 -160.599)" fill="#000e23"/>
    <path id="Trazado_7077" data-name="Trazado 7077" d="M1024.684,347.635l.841-.518,5.268-.117s2.7.252,2.673,2.266-9.155.823-9.155.823l-.52-1.691.894-.759Z" transform="translate(-592.935 -160.599)" fill="rgba(0,0,0,0.2)"/>
    <path id="Trazado_7078" data-name="Trazado 7078" d="M598.872,353.915c-1.769.609-12.367,1.172-11.559-.98s3.779-2.6,3.779-2.6S599.015,350.255,598.872,353.915Z" transform="translate(-321.016 -162.678)" fill="#000e23"/>
    <path id="Trazado_7079" data-name="Trazado 7079" d="M598.872,353.915c-1.769.609-12.367,1.172-11.559-.98s3.779-2.6,3.779-2.6S599.015,350.255,598.872,353.915Z" transform="translate(-321.016 -162.678)" fill="rgba(0,0,0,0.2)"/>
    <path id="Trazado_7080" data-name="Trazado 7080" d="M765.908,319.763a.824.824,0,0,0-.411-.443l-.173-.057-.109-.124c-5.064-5.166-15.712-11.066-28.079-12.6-9.065-1.127-20,1.522-30.576,4.084-4.332,1.049-8.423,2.04-12.24,2.732-7.1,1.285-17.7-.192-29.975-1.9-10.218-1.424-21.8-3.036-32.51-3.07h-.162c-11.8,0-19.775,3.863-24.392,7.113-5,3.52-7.262,7.056-7.641,8.086,1.754,1.1,13.152,3.37,23.626,5.008l.643.1.015,5.433,23.435.068,72.726-1.6c4.929-.109,33.569-3.213,35.613-3.438.649-.278,4.1-1.755,4.8-2.112.173-.086.313-.7.275-1.218l-.075-1.12,3.51,1.127a.1.1,0,0,0,.087-.015.163.163,0,0,0,.06-.135l-.038-1.413,1.346-2.461a2.726,2.726,0,0,0,.241-2.044Z" transform="translate(-328.722 -135.23)" fill="#fff"/>
    <path id="Trazado_7081" data-name="Trazado 7081" d="M764.663,316.57a2.4,2.4,0,0,0-1.078-1.131c-4.91-4.948-15.37-11.265-28.879-12.941-9.343-1.157-20.418,1.522-31.124,4.118-4.309,1.044-8.378,2.029-12.149,2.713-6.864,1.24-17.349-.218-29.49-1.909-10.267-1.432-21.906-3.051-32.717-3.081h-.169c-16.172,0-25.508,6.914-29.641,11.047-2.307,2.307-3.975,4.776-3.971,5.869,0,.811,0,1.732,12.784,4.193,4.884.939,9.82,1.747,11.544,2.025l.019,5.651,24.971.075,72.745-1.6c5.151-.112,34.607-3.321,35.859-3.457l.113-.011.106-.045c.17-.071,4.17-1.781,4.992-2.194a2.163,2.163,0,0,0,1.048-1.612l1.508.485a1.6,1.6,0,0,0,1.467-.248,1.69,1.69,0,0,0,.667-1.394l-.026-1,1.173-2.138.038-.079a4.159,4.159,0,0,0,.215-3.329Zm-2.922,6.587a.157.157,0,0,1-.06.135.09.09,0,0,1-.087.015l-3.51-1.127.075,1.12c.034.519-.105,1.131-.275,1.218-.709.357-4.155,1.834-4.8,2.112-2.044.222-30.684,3.329-35.613,3.438l-72.726,1.6-23.435-.068-.015-5.433-.642-.1c-10.474-1.638-21.872-3.911-23.626-5.008.379-1.03,2.637-4.566,7.641-8.086,4.621-3.25,12.6-7.113,24.392-7.113h.162c10.706.03,22.292,1.646,32.51,3.07,12.274,1.71,22.871,3.186,29.975,1.9,3.817-.692,7.908-1.68,12.24-2.732,10.575-2.563,21.511-5.212,30.576-4.084,12.367,1.533,23.015,7.432,28.079,12.6l.109.124.173.057a.849.849,0,0,1,.411.443,2.706,2.706,0,0,1-.241,2.044L761.7,321.74l.038,1.413Z" transform="translate(-326.108 -132.705)" fill="#000e23"/>
    <path id="Trazado_7082" data-name="Trazado 7082" d="M764.663,316.57a2.4,2.4,0,0,0-1.078-1.131c-4.91-4.948-15.37-11.265-28.879-12.941-9.343-1.157-20.418,1.522-31.124,4.118-4.309,1.044-8.378,2.029-12.149,2.713-6.864,1.24-17.349-.218-29.49-1.909-10.267-1.432-21.906-3.051-32.717-3.081h-.169c-16.172,0-25.508,6.914-29.641,11.047-2.307,2.307-3.975,4.776-3.971,5.869,0,.811,0,1.732,12.784,4.193,4.884.939,9.82,1.747,11.544,2.025l.019,5.651,24.971.075,72.745-1.6c5.151-.112,34.607-3.321,35.859-3.457l.113-.011.106-.045c.17-.071,4.17-1.781,4.992-2.194a2.163,2.163,0,0,0,1.048-1.612l1.508.485a1.6,1.6,0,0,0,1.467-.248,1.69,1.69,0,0,0,.667-1.394l-.026-1,1.173-2.138.038-.079a4.159,4.159,0,0,0,.215-3.329Zm-2.922,6.587a.157.157,0,0,1-.06.135.09.09,0,0,1-.087.015l-3.51-1.127.075,1.12c.034.519-.105,1.131-.275,1.218-.709.357-4.155,1.834-4.8,2.112-2.044.222-30.684,3.329-35.613,3.438l-72.726,1.6-23.435-.068-.015-5.433-.642-.1c-10.474-1.638-21.872-3.911-23.626-5.008.379-1.03,2.637-4.566,7.641-8.086,4.621-3.25,12.6-7.113,24.392-7.113h.162c10.706.03,22.292,1.646,32.51,3.07,12.274,1.71,22.871,3.186,29.975,1.9,3.817-.692,7.908-1.68,12.24-2.732,10.575-2.563,21.511-5.212,30.576-4.084,12.367,1.533,23.015,7.432,28.079,12.6l.109.124.173.057a.849.849,0,0,1,.411.443,2.706,2.706,0,0,1-.241,2.044L761.7,321.74l.038,1.413Z" transform="translate(-326.108 -132.705)" fill="rgba(0,0,0,0.2)"/>
    <path id="Trazado_7083" data-name="Trazado 7083" d="M764.152,287.167l-.185-7.091s-7.455-10.769-37.586-11.449-35.253,3.359-36.628,3-5.511-4.453-5.511-4.453l-8.734-8.725s-.316-.459-1.593.034a34.9,34.9,0,0,0-4.557,2.893l7.235,12.28a.91.91,0,0,1-.654,1.146c-.905.252-17.848,3.028-29.126,1.649s-24.283-13.189-49.825,3.111c-5.229,1.977-5.151,4.922-5.151,4.922l.252,9.612s5.552.267,6.552.71a1.856,1.856,0,0,1,1.345,1.988c2.607.951,7.348,2.086,7.348,2.086a2.212,2.212,0,0,0,2.923-1.462c.853-2.266,1.856-16.093,16.357-16.488s17.6,13.572,17.6,13.572,1.394,6.872,3.069,6.91,66.521-.842,66.521-.842,1.364-.109,2.81-5.877,7.2-15.124,18.363-15.293,16.807,9.4,17.542,14.192c.788,1.146.8,1.454,1.467.977s10.181-7.4,10.181-7.4Z" transform="translate(-323.862 -105.32)" fill="#bdd3f9"/>
    <path id="Trazado_7084" data-name="Trazado 7084" d="M815.82,294.608c-.21,0-.342,0-.379,0a.763.763,0,1,1,.053-1.526c.075,0,7.491.2,11.522-3.5a.763.763,0,0,1,1.033,1.124C824.059,294.367,817.481,294.608,815.82,294.608Z" transform="translate(-462.69 -124.706)" fill="#000e23"/>
    <path id="Trazado_7085" data-name="Trazado 7085" d="M815.82,294.608c-.21,0-.342,0-.379,0a.763.763,0,1,1,.053-1.526c.075,0,7.491.2,11.522-3.5a.763.763,0,0,1,1.033,1.124C824.059,294.367,817.481,294.608,815.82,294.608Z" transform="translate(-462.69 -124.706)" fill="rgba(0,0,0,0.2)"/>
    <path id="Trazado_7086" data-name="Trazado 7086" d="M748.292,315.391l6.984-.342a.4.4,0,0,0-.008-.8l-7-.225a.392.392,0,0,0-.394.406l.015.568A.4.4,0,0,0,748.292,315.391Z" transform="translate(-421.061 -140.059)" fill="#fff"/>
    <path id="Trazado_7087" data-name="Trazado 7087" d="M811.5,264.6h-.124l-.432-.008-.218-.372c-.06-.1-5.868-10.051-6.567-11.265l-.177-.312.124-.334c.214-.578,1.255-1.555,4.989-2.923l.454-.169,11.763,11.7-.748.522a26.959,26.959,0,0,1-4.294,2.465,15.427,15.427,0,0,1-4.779.688Zm-5.748-11.937c1.176,2.025,5.09,8.732,6.071,10.412a13.12,13.12,0,0,0,3.892-.575,20.882,20.882,0,0,0,3.219-1.789l-9.767-9.717a17.889,17.889,0,0,0-3.419,1.668Z" transform="translate(-456.013 -99.688)" fill="#000e23"/>
    <path id="Trazado_7088" data-name="Trazado 7088" d="M811.5,264.6h-.124l-.432-.008-.218-.372c-.06-.1-5.868-10.051-6.567-11.265l-.177-.312.124-.334c.214-.578,1.255-1.555,4.989-2.923l.454-.169,11.763,11.7-.748.522a26.959,26.959,0,0,1-4.294,2.465,15.427,15.427,0,0,1-4.779.688Zm-5.748-11.937c1.176,2.025,5.09,8.732,6.071,10.412a13.12,13.12,0,0,0,3.892-.575,20.882,20.882,0,0,0,3.219-1.789l-9.767-9.717a17.889,17.889,0,0,0-3.419,1.668Z" transform="translate(-456.013 -99.688)" fill="rgba(0,0,0,0.2)"/>
    <path id="Trazado_7089" data-name="Trazado 7089" d="M689.455,365.12a2.181,2.181,0,1,0-2.261-2.008A2.139,2.139,0,0,0,689.455,365.12Z" transform="translate(-383.257 -169.176)" fill="#fff"/>
    <path id="Trazado_7090" data-name="Trazado 7090" d="M970.979,366.382a2.181,2.181,0,1,0-2.261-2.008A2.139,2.139,0,0,0,970.979,366.382Z" transform="translate(-558.625 -169.962)" fill="#fff"/>
    <path id="Trazado_7091" data-name="Trazado 7091" d="M659.651,355.153a15.327,15.327,0,1,0-15.459-15.326A15.393,15.393,0,0,0,659.651,355.153Z" transform="translate(-356.475 -146.583)" fill="#000e23"/>
    <path id="Trazado_7092" data-name="Trazado 7092" d="M659.651,355.153a15.327,15.327,0,1,0-15.459-15.326A15.393,15.393,0,0,0,659.651,355.153Z" transform="translate(-356.475 -146.583)" fill="rgba(0,0,0,0.2)"/>
    <path id="Trazado_7093" data-name="Trazado 7093" d="M673.3,359.224a7.448,7.448,0,1,0-7.363-7.447A7.405,7.405,0,0,0,673.3,359.224Z" transform="translate(-370.023 -158.935)" fill="#fff"/>
    <path id="Trazado_7094" data-name="Trazado 7094" d="M947.745,355.153a15.327,15.327,0,1,0-15.459-15.326A15.393,15.393,0,0,0,947.745,355.153Z" transform="translate(-535.935 -146.583)" fill="#000e23"/>
    <path id="Trazado_7095" data-name="Trazado 7095" d="M947.745,355.153a15.327,15.327,0,1,0-15.459-15.326A15.393,15.393,0,0,0,947.745,355.153Z" transform="translate(-535.935 -146.583)" fill="rgba(0,0,0,0.2)"/>
    <path id="Trazado_7096" data-name="Trazado 7096" d="M961.408,359.224a7.448,7.448,0,1,0-7.363-7.447A7.406,7.406,0,0,0,961.408,359.224Z" transform="translate(-549.489 -158.935)" fill="#fff"/>
    <path id="Trazado_7097" data-name="Trazado 7097" d="M205,378.2c6.042,0,10.94-4.547,10.94-10.156s-4.9-10.157-10.94-10.157-10.94,4.547-10.94,10.157S198.962,378.2,205,378.2Z" transform="translate(-76.08 -167.383)" fill="#000e23"/>
    <path id="Trazado_7098" data-name="Trazado 7098" d="M205,378.2c6.042,0,10.94-4.547,10.94-10.156s-4.9-10.157-10.94-10.157-10.94,4.547-10.94,10.157S198.962,378.2,205,378.2Z" transform="translate(-76.08 -167.383)" fill="rgba(0,0,0,0.2)"/>
    <path id="Trazado_7099" data-name="Trazado 7099" d="M389.832,377.141c6.592,0,11.935-5,11.935-11.175s-5.344-11.175-11.935-11.175-11.935,5-11.935,11.175S383.241,377.141,389.832,377.141Z" transform="translate(-190.593 -165.453)" fill="#000e23"/>
    <path id="Trazado_7100" data-name="Trazado 7100" d="M389.832,377.141c6.592,0,11.935-5,11.935-11.175s-5.344-11.175-11.935-11.175-11.935,5-11.935,11.175S383.241,377.141,389.832,377.141Z" transform="translate(-190.593 -165.453)" fill="rgba(0,0,0,0.2)"/>
    <path id="Trazado_7101" data-name="Trazado 7101" d="M368.861,354.43a.551.551,0,0,1-.638-.571,8.069,8.069,0,0,1,1.375-3.536,33.085,33.085,0,0,1,4.974-6.959,11.308,11.308,0,0,1,7.581-3.539,16.548,16.548,0,0,1,6.368,1.668,29.071,29.071,0,0,1,4.767,2.345,1,1,0,0,1-.387,1.834c-7.69,1.2-14.283,7.526-22.168,8.458l-1.867.3Z" transform="translate(-184.567 -156.129)" fill="#bdd3f9"/>
    <path id="Trazado_7102" data-name="Trazado 7102" d="M356.332,273.335a10.216,10.216,0,0,0-.556-2.874,21.917,21.917,0,0,0-1.908-5.249,1.118,1.118,0,0,1-.169-.534.877.877,0,0,1,.275-.534,2.613,2.613,0,0,1,1.747-.834,1.529,1.529,0,0,0,.936-.2,1.179,1.179,0,0,0,.278-.89q.079-2.475.154-4.949a32.475,32.475,0,0,0-3.7.665,8.528,8.528,0,0,0-4.324,2.112,4.987,4.987,0,0,0-.965,5.174c.977,2.4,3.772,3.84,4.316,6.376.128.6.736,2.51,1.353,2.48.21-.011,2.558-.736,2.558-.736Z" transform="translate(-171.82 -104.703)" fill="#bdd3f9"/>
    <path id="Trazado_7103" data-name="Trazado 7103" d="M370.482,264.151a1.628,1.628,0,0,1-.6-.124c-.673-.259-1.345-.526-2.01-.8a1.309,1.309,0,0,1-.842-1.657l.319-2.5a1.512,1.512,0,0,1,1.5-1.319h.011l1.63.015a1.516,1.516,0,0,1,1.694,1.853,19.623,19.623,0,0,1-.654,3.671,1.2,1.2,0,0,1-.3.556,1.024,1.024,0,0,1-.747.3Zm-1.98-2.288q.834.344,1.675.665a18,18,0,0,0,.507-3.032,1.643,1.643,0,0,0,.008-.218c-.053,0-.124-.008-.218-.008l-1.63-.015-.751-.09.744.094-.323,2.529c0,.026-.008.049-.011.072Z" transform="translate(-183.798 -105.007)" fill="#000e23"/>
    <path id="Trazado_7104" data-name="Trazado 7104" d="M370.482,264.151a1.628,1.628,0,0,1-.6-.124c-.673-.259-1.345-.526-2.01-.8a1.309,1.309,0,0,1-.842-1.657l.319-2.5a1.512,1.512,0,0,1,1.5-1.319h.011l1.63.015a1.516,1.516,0,0,1,1.694,1.853,19.623,19.623,0,0,1-.654,3.671,1.2,1.2,0,0,1-.3.556,1.024,1.024,0,0,1-.747.3Zm-1.98-2.288q.834.344,1.675.665a18,18,0,0,0,.507-3.032,1.643,1.643,0,0,0,.008-.218c-.053,0-.124-.008-.218-.008l-1.63-.015-.751-.09.744.094-.323,2.529c0,.026-.008.049-.011.072Z" transform="translate(-183.798 -105.007)" fill="rgba(0,0,0,0.2)"/>
    <path id="Trazado_7105" data-name="Trazado 7105" d="M342.2,245.534a.746.746,0,0,1-.594-.289,49.994,49.994,0,0,0-4.057-4.588,3.621,3.621,0,0,0-1.9-1.225,3.539,3.539,0,0,0-1.341.241,3.076,3.076,0,0,1-1.446.2,2.508,2.508,0,0,1-1.89-2.16,3.437,3.437,0,0,1,1.382-3.495,2.772,2.772,0,0,1,2.228-.308,2.36,2.36,0,0,1,1.525,1.244,2.766,2.766,0,0,1-.361,2.777.314.314,0,0,1,.056,0,4.822,4.822,0,0,1,2.8,1.657,51.964,51.964,0,0,1,4.181,4.727.754.754,0,0,1-.132,1.056.739.739,0,0,1-.462.158ZM333.812,235.3a1.182,1.182,0,0,0-.639.177,1.955,1.955,0,0,0-.718,1.969,1.549,1.549,0,0,0,.365.774.676.676,0,0,1,.222-.143,3.474,3.474,0,0,0,1.472-1,1.314,1.314,0,0,0,.241-1.278.906.906,0,0,0-.579-.443,1.345,1.345,0,0,0-.364-.049Z" transform="translate(-161.328 -90.083)" fill="#000e23"/>
    <path id="Trazado_7106" data-name="Trazado 7106" d="M342.2,245.534a.746.746,0,0,1-.594-.289,49.994,49.994,0,0,0-4.057-4.588,3.621,3.621,0,0,0-1.9-1.225,3.539,3.539,0,0,0-1.341.241,3.076,3.076,0,0,1-1.446.2,2.508,2.508,0,0,1-1.89-2.16,3.437,3.437,0,0,1,1.382-3.495,2.772,2.772,0,0,1,2.228-.308,2.36,2.36,0,0,1,1.525,1.244,2.766,2.766,0,0,1-.361,2.777.314.314,0,0,1,.056,0,4.822,4.822,0,0,1,2.8,1.657,51.964,51.964,0,0,1,4.181,4.727.754.754,0,0,1-.132,1.056.739.739,0,0,1-.462.158ZM333.812,235.3a1.182,1.182,0,0,0-.639.177,1.955,1.955,0,0,0-.718,1.969,1.549,1.549,0,0,0,.365.774.676.676,0,0,1,.222-.143,3.474,3.474,0,0,0,1.472-1,1.314,1.314,0,0,0,.241-1.278.906.906,0,0,0-.579-.443,1.345,1.345,0,0,0-.364-.049Z" transform="translate(-161.328 -90.083)" fill="rgba(0,0,0,0.2)"/>
    <path id="Trazado_7107" data-name="Trazado 7107" d="M338.8,270.88l-4.02.327a.394.394,0,0,0-.455.485c0,.331.008.661.015.992a.381.381,0,0,0,.083.285.372.372,0,0,0,.3.06c1.244-.1,2.491-.207,3.734-.308a.378.378,0,0,0,.436-.443l-.1-1.394Z" transform="translate(-163.455 -113.182)" fill="#000e23"/>
    <path id="Trazado_7108" data-name="Trazado 7108" d="M338.8,270.88l-4.02.327a.394.394,0,0,0-.455.485c0,.331.008.661.015.992a.381.381,0,0,0,.083.285.372.372,0,0,0,.3.06c1.244-.1,2.491-.207,3.734-.308a.378.378,0,0,0,.436-.443l-.1-1.394Z" transform="translate(-163.455 -113.182)" fill="rgba(0,0,0,0.2)"/>
    <path id="Trazado_7109" data-name="Trazado 7109" d="M349.58,274.134a.838.838,0,0,1-.244.428,12.886,12.886,0,0,0-2.044,3.239c.609.052,1.217.1,1.83.154a.611.611,0,0,0,.349-.037.618.618,0,0,0,.214-.225q1.025-1.528,2.055-3.051a.312.312,0,0,0,.071-.184c-.011-.135-.184-.18-.316-.192-.627-.06-1.255-.117-1.882-.176" transform="translate(-171.529 -115.181)" fill="#000e23"/>
    <path id="Trazado_7110" data-name="Trazado 7110" d="M349.58,274.134a.838.838,0,0,1-.244.428,12.886,12.886,0,0,0-2.044,3.239c.609.052,1.217.1,1.83.154a.611.611,0,0,0,.349-.037.618.618,0,0,0,.214-.225q1.025-1.528,2.055-3.051a.312.312,0,0,0,.071-.184c-.011-.135-.184-.18-.316-.192-.627-.06-1.255-.117-1.882-.176" transform="translate(-171.529 -115.181)" fill="rgba(0,0,0,0.2)"/>
    <path id="Trazado_7111" data-name="Trazado 7111" d="M257.147,301.748c-1.112-1.138-2.5-1.969-3.64-3.077a13.291,13.291,0,0,1-3.58-7.2,1.492,1.492,0,0,0-.293-.782c-.439-.485-1.3-.154-1.649.395a16.611,16.611,0,0,0-.7,1.826c-.673,1.39-2.438,2.018-3.054,3.434a4.354,4.354,0,0,0-.207,2.187c.372,3.724,2.111,7.575.714,11.043a9.6,9.6,0,0,1-2.247,3.164,18.648,18.648,0,0,1-19.7,3.949,5.833,5.833,0,0,1-3.148-2.435,6.829,6.829,0,0,1-.357-3.863c.248-2.386.583-4.9,2.063-6.786.695-.883,1.608-1.578,2.325-2.442a3.611,3.611,0,0,0,.958-3.1q-14.589.507-29.13,1.9a7.138,7.138,0,0,0-2.634.6l-1.409,1.578a16.529,16.529,0,0,1-1.367,2.04,21.771,21.771,0,0,0-6.06,3.641c-4.189,3.6-6.848,8.988-6.285,14.481,0,0,23.307.176,34.622-.15a1.208,1.208,0,0,0,.643-.143,1.1,1.1,0,0,0,.327-.455c.068-.146.124-.3.184-.443a2.483,2.483,0,0,1,.936,2.183c-.09.639-.432,1.4.041,1.837a1.358,1.358,0,0,0,.714.267c9.482,1.612,19.381,3.051,28.577.233a10.809,10.809,0,0,0,3.836-1.864c3.783-3.164,3.035-9.589,6.563-13.038,1.589-1.552,4.035-2.521,4.549-4.682a4.833,4.833,0,0,0-1.581-4.287Z" transform="translate(-65.865 -125.376)" fill="#bdd3f9"/>
    <path id="Trazado_7112" data-name="Trazado 7112" d="M184.4,339.174a2.034,2.034,0,0,1-.932-.2,2.473,2.473,0,0,1-1.123-1.965,4.676,4.676,0,0,1,.24-2.713,1.518,1.518,0,0,1,.695-.752,1.685,1.685,0,0,1,.721-.147c4.223-.064,4.4.736,4.478,1.124a6.509,6.509,0,0,1-.188,2.987,1.525,1.525,0,0,1-1.195,1.214,10.9,10.9,0,0,1-2.4.44c-.1.008-.2.011-.3.011Zm-.436-4.268a.457.457,0,0,0-.023.045,3.329,3.329,0,0,0-.105,1.848c.09.635.233.793.308.83a1.25,1.25,0,0,0,.458.03,9.143,9.143,0,0,0,2.063-.376c.075-.023.12-.038.146-.049a1.064,1.064,0,0,0,.03-.105,5.392,5.392,0,0,0,.218-2.01,15.043,15.043,0,0,0-3.035-.218h-.064Z" transform="translate(-68.727 -152.126)" fill="#000e23"/>
    <path id="Trazado_7113" data-name="Trazado 7113" d="M184.4,339.174a2.034,2.034,0,0,1-.932-.2,2.473,2.473,0,0,1-1.123-1.965,4.676,4.676,0,0,1,.24-2.713,1.518,1.518,0,0,1,.695-.752,1.685,1.685,0,0,1,.721-.147c4.223-.064,4.4.736,4.478,1.124a6.509,6.509,0,0,1-.188,2.987,1.525,1.525,0,0,1-1.195,1.214,10.9,10.9,0,0,1-2.4.44c-.1.008-.2.011-.3.011Zm-.436-4.268a.457.457,0,0,0-.023.045,3.329,3.329,0,0,0-.105,1.848c.09.635.233.793.308.83a1.25,1.25,0,0,0,.458.03,9.143,9.143,0,0,0,2.063-.376c.075-.023.12-.038.146-.049a1.064,1.064,0,0,0,.03-.105,5.392,5.392,0,0,0,.218-2.01,15.043,15.043,0,0,0-3.035-.218h-.064Z" transform="translate(-68.727 -152.126)" fill="rgba(0,0,0,0.2)"/>
    <path id="Trazado_7114" data-name="Trazado 7114" d="M217.274,304.172c-.609-.86-1.653-1-2.547-1.559a3.212,3.212,0,0,1-.872-.658,2.572,2.572,0,0,1-.41-.954c-.267-.977-.5-1.962-.695-2.957a1.989,1.989,0,0,1,1.939-2.382l31.294-.139a2.513,2.513,0,0,1,1.251.21,2.541,2.541,0,0,1,.939,2.033c.109.883.218,1.77.327,2.653a96.939,96.939,0,0,1-31.32,3.724" transform="translate(-87.696 -128.532)" fill="#000e23"/>
    <path id="Trazado_7115" data-name="Trazado 7115" d="M217.274,304.172c-.609-.86-1.653-1-2.547-1.559a3.212,3.212,0,0,1-.872-.658,2.572,2.572,0,0,1-.41-.954c-.267-.977-.5-1.962-.695-2.957a1.989,1.989,0,0,1,1.939-2.382l31.294-.139a2.513,2.513,0,0,1,1.251.21,2.541,2.541,0,0,1,.939,2.033c.109.883.218,1.77.327,2.653a96.939,96.939,0,0,1-31.32,3.724" transform="translate(-87.696 -128.532)" fill="rgba(0,0,0,0.2)"/>
    <path id="Trazado_7116" data-name="Trazado 7116" d="M245.535,195.2a4.211,4.211,0,0,1-1.067.139,5.49,5.49,0,0,1-.808-.064,2.418,2.418,0,0,1-.729-.248c-.207,1.052-.35,1.672-.447,2.044l2.731,2.98a2.477,2.477,0,0,0,.887.357l-.158-2.423a10.236,10.236,0,0,1-.413-2.784Z" transform="translate(-106.242 -65.933)" fill="#fff"/>
    <path id="Trazado_7117" data-name="Trazado 7117" d="M250.573,194.053a10.268,10.268,0,0,0,.413,2.784l.158,2.423a.921.921,0,0,0,.2,0c1.018-.124-.214-4.336.811-4.393-.049-.518-.1-1.116-.131-1.687A2.8,2.8,0,0,1,250.573,194.053Z" transform="translate(-111.28 -64.784)" fill="#000e23"/>
    <path id="Trazado_7118" data-name="Trazado 7118" d="M250.573,194.053a10.268,10.268,0,0,0,.413,2.784l.158,2.423a.921.921,0,0,0,.2,0c1.018-.124-.214-4.336.811-4.393-.049-.518-.1-1.116-.131-1.687A2.8,2.8,0,0,1,250.573,194.053Z" transform="translate(-111.28 -64.784)" fill="rgba(0,0,0,0.2)"/>
    <path id="Trazado_7119" data-name="Trazado 7119" d="M242.72,198.274l-2.731-2.98c.1-.372.24-.992.447-2.044a4.846,4.846,0,0,1-1.326-1.071l-.008.041c-.221,1.176-.518,2.585-.623,2.9,1.221.714,2.968,2.4,4.245,3.149Z" transform="translate(-103.747 -64.157)" fill="#000e23"/>
    <path id="Trazado_7120" data-name="Trazado 7120" d="M242.72,198.274l-2.731-2.98c.1-.372.24-.992.447-2.044a4.846,4.846,0,0,1-1.326-1.071l-.008.041c-.221,1.176-.518,2.585-.623,2.9,1.221.714,2.968,2.4,4.245,3.149Z" transform="translate(-103.747 -64.157)" fill="rgba(0,0,0,0.2)"/>
    <path id="Trazado_7121" data-name="Trazado 7121" d="M237.907,174.687c1.21,2.048,2.164,3.137,2.844,3.242a1.994,1.994,0,0,0,2.043-.556,7.58,7.58,0,0,0,.958-4.22c0-.019-.008-.056-.015-.113a4.247,4.247,0,0,0-1.349-2.912,2.8,2.8,0,0,0-1.784-.56,4.709,4.709,0,0,0-.552.034,2.667,2.667,0,0,0-2.284,1.4,4.649,4.649,0,0,0,.139,3.683Z" transform="translate(-103.103 -50.073)" fill="#fff"/>
    <path id="Trazado_7122" data-name="Trazado 7122" d="M237.3,176.685a2.531,2.531,0,0,0,.729.248,5.494,5.494,0,0,0,.808.064,4.051,4.051,0,0,0,1.067-.139,2.823,2.823,0,0,0,1.454-.868,2.1,2.1,0,0,0,.259-.364,9.117,9.117,0,0,0,1.127-5.2v-.034a5.74,5.74,0,0,0-1.916-3.923,4.5,4.5,0,0,0-3.448-.838,4.116,4.116,0,0,0-3.449,2.232,6.02,6.02,0,0,0,.192,5.11,16.384,16.384,0,0,0,1.852,2.649,4.785,4.785,0,0,0,1.326,1.071Zm.263-9.57a4.709,4.709,0,0,1,.552-.034,2.806,2.806,0,0,1,1.785.56,4.256,4.256,0,0,1,1.348,2.912c.008.057.011.094.015.113a7.544,7.544,0,0,1-.958,4.22,2,2,0,0,1-2.044.556c-.68-.105-1.634-1.2-2.844-3.242a4.647,4.647,0,0,1-.139-3.683,2.662,2.662,0,0,1,2.284-1.4Z" transform="translate(-100.613 -47.589)" fill="#000e23"/>
    <path id="Trazado_7123" data-name="Trazado 7123" d="M237.3,176.685a2.531,2.531,0,0,0,.729.248,5.494,5.494,0,0,0,.808.064,4.051,4.051,0,0,0,1.067-.139,2.823,2.823,0,0,0,1.454-.868,2.1,2.1,0,0,0,.259-.364,9.117,9.117,0,0,0,1.127-5.2v-.034a5.74,5.74,0,0,0-1.916-3.923,4.5,4.5,0,0,0-3.448-.838,4.116,4.116,0,0,0-3.449,2.232,6.02,6.02,0,0,0,.192,5.11,16.384,16.384,0,0,0,1.852,2.649,4.785,4.785,0,0,0,1.326,1.071Zm.263-9.57a4.709,4.709,0,0,1,.552-.034,2.806,2.806,0,0,1,1.785.56,4.256,4.256,0,0,1,1.348,2.912c.008.057.011.094.015.113a7.544,7.544,0,0,1-.958,4.22,2,2,0,0,1-2.044.556c-.68-.105-1.634-1.2-2.844-3.242a4.647,4.647,0,0,1-.139-3.683,2.662,2.662,0,0,1,2.284-1.4Z" transform="translate(-100.613 -47.589)" fill="rgba(0,0,0,0.2)"/>
    <path id="Trazado_7124" data-name="Trazado 7124" d="M297.625,360.591l-.485.417,8.73,8.007a2.35,2.35,0,0,0,.492-1.5c-.308-2.014-4.2-6.031-5.6-7.282-.549-.488-.346-1.026.3-1.875-.289-.285-.568-.56-.83-.827-1.375,1.676-2.461,2.931-2.607,3.058Z" transform="translate(-140.288 -167.16)" fill="#fff"/>
    <path id="Trazado_7125" data-name="Trazado 7125" d="M298.461,356.582c-.65.845-.853,1.383-.3,1.871,1.4,1.251,5.293,5.264,5.6,7.282a2.336,2.336,0,0,1-.492,1.5l-8.73-8.007.485-.417c.147-.124,1.232-1.379,2.607-3.058-.387-.391-.744-.752-1.059-1.078-1.326,1.62-2.374,2.833-2.547,3.017l-.518.443a1.52,1.52,0,0,0-.537,1.112,1.226,1.226,0,0,0,.394.939l9.369,8.593.233.03c.026,0,.079.008.15.008a1.739,1.739,0,0,0,1.078-.4,3.614,3.614,0,0,0,1.071-2.649v-.143c-.3-2.638-4.478-6.767-5.744-7.962a.214.214,0,0,1,.026-.03c-.368-.353-.732-.71-1.082-1.056Z" transform="translate(-137.687 -165.379)" fill="#000e23"/>
    <path id="Trazado_7126" data-name="Trazado 7126" d="M298.461,356.582c-.65.845-.853,1.383-.3,1.871,1.4,1.251,5.293,5.264,5.6,7.282a2.336,2.336,0,0,1-.492,1.5l-8.73-8.007.485-.417c.147-.124,1.232-1.379,2.607-3.058-.387-.391-.744-.752-1.059-1.078-1.326,1.62-2.374,2.833-2.547,3.017l-.518.443a1.52,1.52,0,0,0-.537,1.112,1.226,1.226,0,0,0,.394.939l9.369,8.593.233.03c.026,0,.079.008.15.008a1.739,1.739,0,0,0,1.078-.4,3.614,3.614,0,0,0,1.071-2.649v-.143c-.3-2.638-4.478-6.767-5.744-7.962a.214.214,0,0,1,.026-.03c-.368-.353-.732-.71-1.082-1.056Z" transform="translate(-137.687 -165.379)" fill="rgba(0,0,0,0.2)"/>
    <path id="Trazado_7127" data-name="Trazado 7127" d="M274.474,421.186l-.139.624,11.785,1.169a2.3,2.3,0,0,0-.507-1.492c-1.187-1.165-5.285-2.074-8.866-2.465l-.368-.041-.214-.342a4.622,4.622,0,0,1-.353-2.025l-1.273.286c.011,2.288-.019,4.069-.067,4.291Z" transform="translate(-126.082 -203.963)" fill="#fff"/>
    <path id="Trazado_7128" data-name="Trazado 7128" d="M273.309,416.044a4.551,4.551,0,0,0,.353,2.025l.214.342.368.042c3.58.391,7.679,1.3,8.866,2.465a2.361,2.361,0,0,1,.507,1.492l-11.785-1.169.139-.624c.049-.222.079-2,.068-4.291l-1.5.334c0,2-.023,3.408-.041,3.667l-.146.658a1.521,1.521,0,0,0,.237,1.213,1.218,1.218,0,0,0,.875.515l12.652,1.255.207-.113a1.666,1.666,0,0,0,.748-1.048,3.623,3.623,0,0,0-.733-2.762l-.086-.113c-1.721-1.819-7.111-2.649-9.362-2.92a5.756,5.756,0,0,1-.064-1.308Z" transform="translate(-123.576 -203.398)" fill="#000e23"/>
    <path id="Trazado_7129" data-name="Trazado 7129" d="M273.309,416.044a4.551,4.551,0,0,0,.353,2.025l.214.342.368.042c3.58.391,7.679,1.3,8.866,2.465a2.361,2.361,0,0,1,.507,1.492l-11.785-1.169.139-.624c.049-.222.079-2,.068-4.291l-1.5.334c0,2-.023,3.408-.041,3.667l-.146.658a1.521,1.521,0,0,0,.237,1.213,1.218,1.218,0,0,0,.875.515l12.652,1.255.207-.113a1.666,1.666,0,0,0,.748-1.048,3.623,3.623,0,0,0-.733-2.762l-.086-.113c-1.721-1.819-7.111-2.649-9.362-2.92a5.756,5.756,0,0,1-.064-1.308Z" transform="translate(-123.576 -203.398)" fill="rgba(0,0,0,0.2)"/>
    <path id="Trazado_7130" data-name="Trazado 7130" d="M234.294,285.964c.117.169.237.346.353.534,1.12,1.8,1.514,3.126,1.247,4.171a2.681,2.681,0,0,1-1.424,1.661l-.038.022a1.335,1.335,0,0,1-.653.2.93.93,0,0,1-.721-.365l-4.689-5.3a.849.849,0,0,1-.563.207h0c-.789,0-3.805-2-6.743-4.449l-.391,1.247a6.272,6.272,0,0,0,2.769,7.259l5.823,3.476,7.063,15.732.879,19.332c.225.951,1.2,1.541,1.9,1.143l.331-.075,1.5-.334,1.273-.286,1.514-.338,3.554-.8c.387-.218.582-.692.86-1.078l-2.171-19.261-6.42-19.693c.958.459,2.63.338,9.388.192,2.472-.052.207,12.434,1.06,16.131a19.52,19.52,0,0,0,1.367,1.488c.316.327.673.691,1.06,1.078.267.267.544.545.83.827.349.346.713.7,1.082,1.056,2.615,2.517,5.477,5.02,5.665,4.261.766-3.066.747-20.008-4.433-28.286-2.976-4.757-7.938-6.933-11.939-7.925a14.8,14.8,0,0,1,.252,2.581c0,.308-5.853,4.175-9.572,5.58Z" transform="translate(-92.473 -117.49)" fill="#000e23"/>
    <path id="Trazado_7131" data-name="Trazado 7131" d="M234.294,285.964c.117.169.237.346.353.534,1.12,1.8,1.514,3.126,1.247,4.171a2.681,2.681,0,0,1-1.424,1.661l-.038.022a1.335,1.335,0,0,1-.653.2.93.93,0,0,1-.721-.365l-4.689-5.3a.849.849,0,0,1-.563.207h0c-.789,0-3.805-2-6.743-4.449l-.391,1.247a6.272,6.272,0,0,0,2.769,7.259l5.823,3.476,7.063,15.732.879,19.332c.225.951,1.2,1.541,1.9,1.143l.331-.075,1.5-.334,1.273-.286,1.514-.338,3.554-.8c.387-.218.582-.692.86-1.078l-2.171-19.261-6.42-19.693c.958.459,2.63.338,9.388.192,2.472-.052.207,12.434,1.06,16.131a19.52,19.52,0,0,0,1.367,1.488c.316.327.673.691,1.06,1.078.267.267.544.545.83.827.349.346.713.7,1.082,1.056,2.615,2.517,5.477,5.02,5.665,4.261.766-3.066.747-20.008-4.433-28.286-2.976-4.757-7.938-6.933-11.939-7.925a14.8,14.8,0,0,1,.252,2.581c0,.308-5.853,4.175-9.572,5.58Z" transform="translate(-92.473 -117.49)" fill="rgba(0,0,0,0.2)"/>
    <path id="Trazado_7132" data-name="Trazado 7132" d="M327.392,176.24c-.132-1.635-.384-2.18-.819-2.506L326,177.285c.079.12.2.293.327.469a1.391,1.391,0,0,0,1.067-1.514Z" transform="translate(-158.267 -52.668)" fill="#fff"/>
    <path id="Trazado_7133" data-name="Trazado 7133" d="M326.377,173.055c-.218-2.672-.838-3.385-2.235-4.058l-.041-.019a1.007,1.007,0,0,0-.973-.06.8.8,0,0,0-.406.6l-.755,4.7v.023a.76.76,0,0,1,.368-.229c.631-.181.992.368,1.281.808l.023.034.6.289c.169.086.365.188.413.811a3.222,3.222,0,0,0,.815-.522,2.765,2.765,0,0,0,.9-2.386Zm-2.562,1.638c-.127-.18-.248-.349-.327-.469l.571-3.551c.436.327.687.872.819,2.506a1.387,1.387,0,0,1-1.067,1.514Z" transform="translate(-155.753 -49.602)" fill="#000e23"/>
    <path id="Trazado_7134" data-name="Trazado 7134" d="M326.377,173.055c-.218-2.672-.838-3.385-2.235-4.058l-.041-.019a1.007,1.007,0,0,0-.973-.06.8.8,0,0,0-.406.6l-.755,4.7v.023a.76.76,0,0,1,.368-.229c.631-.181.992.368,1.281.808l.023.034.6.289c.169.086.365.188.413.811a3.222,3.222,0,0,0,.815-.522,2.765,2.765,0,0,0,.9-2.386Zm-2.562,1.638c-.127-.18-.248-.349-.327-.469l.571-3.551c.436.327.687.872.819,2.506a1.387,1.387,0,0,1-1.067,1.514Z" transform="translate(-155.753 -49.602)" fill="rgba(0,0,0,0.2)"/>
    <path id="Trazado_7135" data-name="Trazado 7135" d="M277.178,210.117a4,4,0,0,0,3.685,2.255c1.845.117,6.537-.53,10.372-9.04a47.074,47.074,0,0,0,4.009-14.263,1.377,1.377,0,0,1-.233-.188c-.879,2.356-3.591,5.828-5.323,7.9-2.54,3.044-5.9,6.568-7.273,7.124a1.036,1.036,0,0,1-1.033-.064l-4.207,6.271v.011Z" transform="translate(-127.851 -62.102)" fill="#fff"/>
    <path id="Trazado_7136" data-name="Trazado 7136" d="M295.292,183.685l-.6-.289-.023-.034c-.289-.44-.65-.988-1.281-.808a.788.788,0,0,0-.372.229,1.271,1.271,0,0,0-.267.849c-.06,2.889-9.888,13.985-11.852,14.879a.754.754,0,0,0-.631.176,6.349,6.349,0,0,0,.492.56l-.417.624a1.025,1.025,0,0,0,1.033.064c1.375-.556,4.733-4.08,7.273-7.124,1.732-2.074,4.444-5.546,5.323-7.9a1.565,1.565,0,0,0,.233.188,47.083,47.083,0,0,1-4.008,14.263c-3.836,8.511-8.532,9.157-10.373,9.04a3.988,3.988,0,0,1-3.685-2.255v-.011l-.643.958c0,.308.008.6.019.9a6.2,6.2,0,0,0,4.215,1.909c.135.008.285.015.451.015,2.393,0,7.434-1.165,11.387-9.934A52.86,52.86,0,0,0,295.1,189.1a19.134,19.134,0,0,0,.6-4.6c-.049-.627-.244-.729-.413-.811Z" transform="translate(-126.802 -58.14)" fill="#000e23"/>
    <path id="Trazado_7137" data-name="Trazado 7137" d="M295.292,183.685l-.6-.289-.023-.034c-.289-.44-.65-.988-1.281-.808a.788.788,0,0,0-.372.229,1.271,1.271,0,0,0-.267.849c-.06,2.889-9.888,13.985-11.852,14.879a.754.754,0,0,0-.631.176,6.349,6.349,0,0,0,.492.56l-.417.624a1.025,1.025,0,0,0,1.033.064c1.375-.556,4.733-4.08,7.273-7.124,1.732-2.074,4.444-5.546,5.323-7.9a1.565,1.565,0,0,0,.233.188,47.083,47.083,0,0,1-4.008,14.263c-3.836,8.511-8.532,9.157-10.373,9.04a3.988,3.988,0,0,1-3.685-2.255v-.011l-.643.958c0,.308.008.6.019.9a6.2,6.2,0,0,0,4.215,1.909c.135.008.285.015.451.015,2.393,0,7.434-1.165,11.387-9.934A52.86,52.86,0,0,0,295.1,189.1a19.134,19.134,0,0,0,.6-4.6c-.049-.627-.244-.729-.413-.811Z" transform="translate(-126.802 -58.14)" fill="rgba(0,0,0,0.2)"/>
    <path id="Trazado_7138" data-name="Trazado 7138" d="M204.979,268.482a10.158,10.158,0,0,1-.252-1.9,9.733,9.733,0,0,0-.011,1.33c.274,1.913,2.521,4.351,5.109,6.474C207.425,272.236,205.348,269.959,204.979,268.482Z" transform="translate(-82.704 -110.507)" fill="#14b8a6"/>
    <path id="Trazado_7139" data-name="Trazado 7139" d="M233.991,215.517l4.207-6.271.417-.624a6.276,6.276,0,0,1-.492-.56c-1.695-2.13-2.059-5.166-4.985-8.439a7.062,7.062,0,0,0-5.312-2.044c-.752-.023-1.518-.015-2.284.018h0c-1.025.06.207,4.272-.811,4.393a1.229,1.229,0,0,1-.2,0,2.556,2.556,0,0,1-.887-.357c-1.277-.748-3.024-2.439-4.245-3.145a1.621,1.621,0,0,0-1-.312c-3.287.669-3.7,1.507-4.275,1.886-3.193,2.134-5.162,8.669-6.27,14.515a.736.736,0,0,1,.706-.21.749.749,0,0,1,.575.815l6.123.684c.023-.057.041-.113.064-.173a.751.751,0,0,1,1.409.522c-.372,1-.612,1.646-.781,2.1q-.4,1.055-.755,2.255c-.109.368-.255.849-.451,1.5a1.9,1.9,0,0,1,.169.376c1.164,1.014,2.434,2.209,2.99,2.769,3.272,3.273,5.214,6.072,5.77,8.33a6.476,6.476,0,0,1,2.821,2.446c3.723-1.409,9.576-5.275,9.572-5.58a14.449,14.449,0,0,0-.252-2.581c-.631-3.438-2.262-6.237-2.442-10.45-.011-.293-.023-.59-.019-.9l.643-.958Z" transform="translate(-84.664 -67.513)" fill="#14b8a6"/>
    <path id="Trazado_7140" data-name="Trazado 7140" d="M208.913,254.233c.289,1.157,2.427,3.521,5.579,6.17a41.163,41.163,0,0,0,5.729,4.167c.011-.015.026-.03.037-.045.045-.184.169-.383.834-.842a15.665,15.665,0,0,1,1.5-1.116c-.62-1.852-2.348-4.246-5.034-6.966-1.2-1.214-2.37-2.27-3.264-3.032a7.605,7.605,0,0,1-1.676-1.315.779.779,0,0,1-.255-.936l.218-.492.541.049a2.389,2.389,0,0,1,.8.466c.135-.451.244-.8.327-1.093.372-1.236.379-1.259.789-2.352.158-.425.383-1.018.714-1.916l-6.123-.684a.309.309,0,0,1-.011.083c-.015.068-1.51,6.7-.718,9.864Z" transform="translate(-85.18 -96.621)" fill="#fff"/>
    <path id="Trazado_7141" data-name="Trazado 7141" d="M218.058,264.829a.865.865,0,0,0,.564-.207l-.9-1.018.064-.379c.008-.03.011-.06.019-.09-.011.015-.026.03-.038.045a41.5,41.5,0,0,1-5.729-4.167c-3.152-2.649-5.29-5.009-5.579-6.17-.793-3.168.7-9.8.718-9.864a.707.707,0,0,0,.011-.083.747.747,0,0,0-1.281-.6.741.741,0,0,0-.2.353,38.792,38.792,0,0,0-.966,8.664,10.128,10.128,0,0,0,.252,1.9c.368,1.477,2.445,3.754,4.846,5.907.481.428.973.853,1.465,1.266,2.938,2.446,5.954,4.449,6.743,4.449h.008Z" transform="translate(-82.721 -95.231)" fill="#000e23"/>
    <path id="Trazado_7142" data-name="Trazado 7142" d="M218.058,264.829a.865.865,0,0,0,.564-.207l-.9-1.018.064-.379c.008-.03.011-.06.019-.09-.011.015-.026.03-.038.045a41.5,41.5,0,0,1-5.729-4.167c-3.152-2.649-5.29-5.009-5.579-6.17-.793-3.168.7-9.8.718-9.864a.707.707,0,0,0,.011-.083.747.747,0,0,0-1.281-.6.741.741,0,0,0-.2.353,38.792,38.792,0,0,0-.966,8.664,10.128,10.128,0,0,0,.252,1.9c.368,1.477,2.445,3.754,4.846,5.907.481.428.973.853,1.465,1.266,2.938,2.446,5.954,4.449,6.743,4.449h.008Z" transform="translate(-82.721 -95.231)" fill="rgba(0,0,0,0.2)"/>
    <path id="Trazado_7143" data-name="Trazado 7143" d="M220.264,249.26c-.087.285-.192.642-.327,1.093a2.366,2.366,0,0,0-.8-.466l-.541-.049-.218.492a.773.773,0,0,0,.256.936,7.614,7.614,0,0,0,1.675,1.315c.894.767,2.066,1.819,3.265,3.032,2.686,2.72,4.414,5.114,5.034,6.966a15.05,15.05,0,0,0-1.5,1.116c.391-.267.962-.624,1.822-1.124l.12-.068.135-.023a2.121,2.121,0,0,1,1.014.184c-.56-2.258-2.5-5.058-5.77-8.33-.556-.556-1.826-1.755-2.99-2.769a1.919,1.919,0,0,0-.169-.376c.2-.653.342-1.135.451-1.5q.361-1.2.755-2.255c.169-.455.413-1.1.781-2.1a.751.751,0,0,0-1.409-.522c-.023.06-.041.117-.064.173-.331.9-.556,1.492-.714,1.916a23.271,23.271,0,0,0-.789,2.352Z" transform="translate(-91.182 -96.638)" fill="#000e23"/>
    <path id="Trazado_7144" data-name="Trazado 7144" d="M220.264,249.26c-.087.285-.192.642-.327,1.093a2.366,2.366,0,0,0-.8-.466l-.541-.049-.218.492a.773.773,0,0,0,.256.936,7.614,7.614,0,0,0,1.675,1.315c.894.767,2.066,1.819,3.265,3.032,2.686,2.72,4.414,5.114,5.034,6.966a15.05,15.05,0,0,0-1.5,1.116c.391-.267.962-.624,1.822-1.124l.12-.068.135-.023a2.121,2.121,0,0,1,1.014.184c-.56-2.258-2.5-5.058-5.77-8.33-.556-.556-1.826-1.755-2.99-2.769a1.919,1.919,0,0,0-.169-.376c.2-.653.342-1.135.451-1.5q.361-1.2.755-2.255c.169-.455.413-1.1.781-2.1a.751.751,0,0,0-1.409-.522c-.023.06-.041.117-.064.173-.331.9-.556,1.492-.714,1.916a23.271,23.271,0,0,0-.789,2.352Z" transform="translate(-91.182 -96.638)" fill="rgba(0,0,0,0.2)"/>
    <path id="Trazado_7145" data-name="Trazado 7145" d="M245.551,296.519c-.5.293-1.022.616-1.394.864l4.583,5.181a1.042,1.042,0,0,0,.511-.6c.105-.413.008-1.27-1.067-3-1.172-1.886-2.246-2.33-2.63-2.435Z" transform="translate(-107.284 -129.153)" fill="#fff"/>
    <path id="Trazado_7146" data-name="Trazado 7146" d="M242.171,292.448l-.135.023-.12.067c-.86.5-1.431.857-1.822,1.124-.665.458-.789.658-.834.842a.771.771,0,0,0-.019.09l-.064.379.9,1.018,4.688,5.3a.914.914,0,0,0,.721.365,1.337,1.337,0,0,0,.654-.2l.037-.022a2.659,2.659,0,0,0,1.424-1.661c.267-1.044-.128-2.367-1.247-4.17-.117-.188-.233-.365-.353-.534a6.423,6.423,0,0,0-2.821-2.446,2.169,2.169,0,0,0-1.014-.184Zm2.908,3.957c1.075,1.732,1.176,2.589,1.067,3a1.028,1.028,0,0,1-.511.6l-4.583-5.181c.372-.248.9-.571,1.394-.864.383.1,1.462.549,2.63,2.435Z" transform="translate(-104.182 -126.605)" fill="#000e23"/>
    <path id="Trazado_7147" data-name="Trazado 7147" d="M242.171,292.448l-.135.023-.12.067c-.86.5-1.431.857-1.822,1.124-.665.458-.789.658-.834.842a.771.771,0,0,0-.019.09l-.064.379.9,1.018,4.688,5.3a.914.914,0,0,0,.721.365,1.337,1.337,0,0,0,.654-.2l.037-.022a2.659,2.659,0,0,0,1.424-1.661c.267-1.044-.128-2.367-1.247-4.17-.117-.188-.233-.365-.353-.534a6.423,6.423,0,0,0-2.821-2.446,2.169,2.169,0,0,0-1.014-.184Zm2.908,3.957c1.075,1.732,1.176,2.589,1.067,3a1.028,1.028,0,0,1-.511.6l-4.583-5.181c.372-.248.9-.571,1.394-.864.383.1,1.462.549,2.63,2.435Z" transform="translate(-104.182 -126.605)" fill="rgba(0,0,0,0.2)"/>
    <path id="Trazado_7148" data-name="Trazado 7148" d="M236.8,163.232a4.887,4.887,0,0,1-3.554,2.224,4.842,4.842,0,0,0-1.457.241c-1.277.579-1.229,2.379-1.026,3.769a55.9,55.9,0,0,1,.563,9.735,2.648,2.648,0,0,1-2.772-.6,6.089,6.089,0,0,1-1.506-2.559,25.608,25.608,0,0,1-1.281-8.909,8.751,8.751,0,0,1,1.307-5.208c1.27-1.687,3.448-2.36,5.485-2.916,1.255-.342,2.66-.661,3.806-.045a2.585,2.585,0,0,1-.252,4.671" transform="translate(-95.829 -43.252)" fill="#f7cbcb"/>
    <path id="Trazado_7149" data-name="Trazado 7149" d="M310.345,164.18a.751.751,0,0,1-.691-1.049,10.762,10.762,0,0,1,2.558-3.618.752.752,0,0,1,1.022,1.1,9.235,9.235,0,0,0-2.2,3.107A.751.751,0,0,1,310.345,164.18Z" transform="translate(-148.046 -43.685)" fill="#000e23"/>
    <path id="Trazado_7150" data-name="Trazado 7150" d="M310.345,164.18a.751.751,0,0,1-.691-1.049,10.762,10.762,0,0,1,2.558-3.618.752.752,0,0,1,1.022,1.1,9.235,9.235,0,0,0-2.2,3.107A.751.751,0,0,1,310.345,164.18Z" transform="translate(-148.046 -43.685)" fill="rgba(0,0,0,0.2)"/>
    <path id="Trazado_7151" data-name="Trazado 7151" d="M313.261,171.3a.729.729,0,0,1-.368-.1.752.752,0,0,1-.289-1.022l1.3-2.314a.751.751,0,1,1,1.311.733l-1.3,2.314a.757.757,0,0,1-.657.383Z" transform="translate(-149.861 -48.773)" fill="#000e23"/>
    <path id="Trazado_7152" data-name="Trazado 7152" d="M313.261,171.3a.729.729,0,0,1-.368-.1.752.752,0,0,1-.289-1.022l1.3-2.314a.751.751,0,1,1,1.311.733l-1.3,2.314a.757.757,0,0,1-.657.383Z" transform="translate(-149.861 -48.773)" fill="rgba(0,0,0,0.2)"/>
    <path id="Trazado_7153" data-name="Trazado 7153" d="M339.787,180.875a.74.74,0,0,1-.6-.308.755.755,0,0,1,.162-1.052,4.949,4.949,0,0,0,1.608-2.01.75.75,0,1,1,1.375.6,6.458,6.458,0,0,1-2.1,2.619.756.756,0,0,1-.443.147Z" transform="translate(-166.387 -54.737)" fill="#000e23"/>
    <path id="Trazado_7154" data-name="Trazado 7154" d="M339.787,180.875a.74.74,0,0,1-.6-.308.755.755,0,0,1,.162-1.052,4.949,4.949,0,0,0,1.608-2.01.75.75,0,1,1,1.375.6,6.458,6.458,0,0,1-2.1,2.619.756.756,0,0,1-.443.147Z" transform="translate(-166.387 -54.737)" fill="rgba(0,0,0,0.2)"/>
    <path id="Trazado_7155" data-name="Trazado 7155" d="M341.976,184.1a.751.751,0,0,1-.47-1.337,21.162,21.162,0,0,0,3.223-3.213.751.751,0,0,1,1.169.943,22.532,22.532,0,0,1-3.453,3.446.739.739,0,0,1-.469.165Z" transform="translate(-167.75 -56.115)" fill="#000e23"/>
    <path id="Trazado_7156" data-name="Trazado 7156" d="M341.976,184.1a.751.751,0,0,1-.47-1.337,21.162,21.162,0,0,0,3.223-3.213.751.751,0,0,1,1.169.943,22.532,22.532,0,0,1-3.453,3.446.739.739,0,0,1-.469.165Z" transform="translate(-167.75 -56.115)" fill="rgba(0,0,0,0.2)"/>
    <path id="Trazado_7157" data-name="Trazado 7157" d="M926.286,214.678s.015,4.291-.755,4.449c0,0,2.821,2.859,5.883.368-.44-.222-1.112-6.331-1.112-6.331" transform="translate(-531.727 -77.23)" fill="#fff"/>
    <path id="Trazado_7158" data-name="Trazado 7158" d="M926.772,220.131a5.4,5.4,0,0,1-3.655-1.563l-.774-.785.954-.2a13.446,13.446,0,0,0,.406-3.885.6.6,0,1,1,1.2-.008,11.615,11.615,0,0,1-.518,4.374,3.605,3.605,0,0,0,4.3.252,37.055,37.055,0,0,1-.962-6.068.6.6,0,1,1,1.2-.132,45.32,45.32,0,0,0,.928,5.929l.688.346-.721.586a4.728,4.728,0,0,1-3.035,1.15Z" transform="translate(-529.741 -76.241)" fill="#000e23"/>
    <path id="Trazado_7159" data-name="Trazado 7159" d="M926.772,220.131a5.4,5.4,0,0,1-3.655-1.563l-.774-.785.954-.2a13.446,13.446,0,0,0,.406-3.885.6.6,0,1,1,1.2-.008,11.615,11.615,0,0,1-.518,4.374,3.605,3.605,0,0,0,4.3.252,37.055,37.055,0,0,1-.962-6.068.6.6,0,1,1,1.2-.132,45.32,45.32,0,0,0,.928,5.929l.688.346-.721.586a4.728,4.728,0,0,1-3.035,1.15Z" transform="translate(-529.741 -76.241)" fill="rgba(0,0,0,0.2)"/>
    <path id="Trazado_7160" data-name="Trazado 7160" d="M902.229,246.642l18.986.165-.052-3.183,8.629.406q-4.3-.377-8.629-.406c.011.744.026,1.488.037,2.232.011.643.023,1.281.034,1.924q5.692-.034,11.383-.071a4.117,4.117,0,0,0,2.325-.477,2.724,2.724,0,0,0,1.052-2.288,7.315,7.315,0,0,0-.612-2.536q-.846-2.215-1.9-4.34c-2.359-4.779-9.388-12.208-10.8-13.057a21.172,21.172,0,0,0-5.493-1.928s-1.364,1.86-3.028,1.781-3.37-1.924-3.37-1.924l-.233.011c-1.413,0-6.274,4.776-7.168,11.182" transform="translate(-517.212 -83.319)" fill="#14b8a6"/>
    <path id="Trazado_7161" data-name="Trazado 7161" d="M930.254,199.049c-.109,1.642-1.161,3.7-3,4.062a2.434,2.434,0,0,1-2.156-.477,2.976,2.976,0,0,1-.894-1.488l.259-6.4s2.825-.744,3.175-.372,2.708,1.094,3.1,1.879a2.076,2.076,0,0,1-.109,2.029,2.506,2.506,0,0,0-.379.762" transform="translate(-530.902 -65.463)" fill="#fff"/>
    <path id="Trazado_7162" data-name="Trazado 7162" d="M925.646,202.771a2.706,2.706,0,0,1-1.957-.718,3.5,3.5,0,0,1-1.059-1.834l-.008-.052.278-6.891.428-.113c3.171-.834,3.573-.41,3.768-.2a8.081,8.081,0,0,0,.83.41,4.9,4.9,0,0,1,2.371,1.612,2.673,2.673,0,0,1-.158,2.653,2.074,2.074,0,0,0-.271.523c-.15,1.909-1.409,4.129-3.475,4.539a3.9,3.9,0,0,1-.744.071Zm-1.822-2.664a2.534,2.534,0,0,0,.718,1.1,1.838,1.838,0,0,0,1.612.312c1.45-.289,2.416-2.01,2.517-3.509l.019-.109a3.025,3.025,0,0,1,.473-.966,1.479,1.479,0,0,0,.06-1.409,5.864,5.864,0,0,0-1.8-1.056,5.343,5.343,0,0,1-1.108-.59,9.733,9.733,0,0,0-2.25.345l-.237,5.884Z" transform="translate(-529.915 -64.461)" fill="#000e23"/>
    <path id="Trazado_7163" data-name="Trazado 7163" d="M925.646,202.771a2.706,2.706,0,0,1-1.957-.718,3.5,3.5,0,0,1-1.059-1.834l-.008-.052.278-6.891.428-.113c3.171-.834,3.573-.41,3.768-.2a8.081,8.081,0,0,0,.83.41,4.9,4.9,0,0,1,2.371,1.612,2.673,2.673,0,0,1-.158,2.653,2.074,2.074,0,0,0-.271.523c-.15,1.909-1.409,4.129-3.475,4.539a3.9,3.9,0,0,1-.744.071Zm-1.822-2.664a2.534,2.534,0,0,0,.718,1.1,1.838,1.838,0,0,0,1.612.312c1.45-.289,2.416-2.01,2.517-3.509l.019-.109a3.025,3.025,0,0,1,.473-.966,1.479,1.479,0,0,0,.06-1.409,5.864,5.864,0,0,0-1.8-1.056,5.343,5.343,0,0,1-1.108-.59,9.733,9.733,0,0,0-2.25.345l-.237,5.884Z" transform="translate(-529.915 -64.461)" fill="rgba(0,0,0,0.2)"/>
    <path id="Trazado_7164" data-name="Trazado 7164" d="M923.113,193.288a1.9,1.9,0,0,1,2.389-.552,4.075,4.075,0,0,1,1.537,2.4c.079.229.236.507.458.447a.5.5,0,0,0,.207-.147c.256-.237.695-.368.905-.086.267.365-.173.868-.127,1.327.015.158.146.327.285.274a.33.33,0,0,0,.113-.09c.274-.293.548-.59.822-.883a3.757,3.757,0,0,0,1.116-1.792.929.929,0,0,0-.008-.443c-.143-.473-.729-.568-1.2-.578a3.4,3.4,0,0,0,.778-1.037,1.193,1.193,0,0,0-.154-1.244,1.39,1.39,0,0,0-.6-.319,6.487,6.487,0,0,0-1.446-.274,1.747,1.747,0,0,0-.7.06,2.21,2.21,0,0,0-1.025,1.142c-.207-.4.105-1-.21-1.315a.711.711,0,0,0-.331-.158,1.576,1.576,0,0,0-1.251.143,1,1,0,0,0-.394,1.176,1.658,1.658,0,0,0-1.457-.158,1.339,1.339,0,0,0-.827,1.221,1.038,1.038,0,0,0,.95,1.037l.173-.15Z" transform="translate(-529.523 -62.772)" fill="#000e23"/>
    <path id="Trazado_7165" data-name="Trazado 7165" d="M923.113,193.288a1.9,1.9,0,0,1,2.389-.552,4.075,4.075,0,0,1,1.537,2.4c.079.229.236.507.458.447a.5.5,0,0,0,.207-.147c.256-.237.695-.368.905-.086.267.365-.173.868-.127,1.327.015.158.146.327.285.274a.33.33,0,0,0,.113-.09c.274-.293.548-.59.822-.883a3.757,3.757,0,0,0,1.116-1.792.929.929,0,0,0-.008-.443c-.143-.473-.729-.568-1.2-.578a3.4,3.4,0,0,0,.778-1.037,1.193,1.193,0,0,0-.154-1.244,1.39,1.39,0,0,0-.6-.319,6.487,6.487,0,0,0-1.446-.274,1.747,1.747,0,0,0-.7.06,2.21,2.21,0,0,0-1.025,1.142c-.207-.4.105-1-.21-1.315a.711.711,0,0,0-.331-.158,1.576,1.576,0,0,0-1.251.143,1,1,0,0,0-.394,1.176,1.658,1.658,0,0,0-1.457-.158,1.339,1.339,0,0,0-.827,1.221,1.038,1.038,0,0,0,.95,1.037l.173-.15Z" transform="translate(-529.523 -62.772)" fill="rgba(0,0,0,0.2)"/>
    <path id="Trazado_7166" data-name="Trazado 7166" d="M862.614,202.327a.6.6,0,0,1-.552-.365,2.682,2.682,0,0,0-1.435-1.405.6.6,0,1,1,.447-1.116,3.877,3.877,0,0,1,2.092,2.048.6.6,0,0,1-.316.789A.591.591,0,0,1,862.614,202.327Z" transform="translate(-491.062 -68.654)" fill="#000e23"/>
    <path id="Trazado_7167" data-name="Trazado 7167" d="M862.614,202.327a.6.6,0,0,1-.552-.365,2.682,2.682,0,0,0-1.435-1.405.6.6,0,1,1,.447-1.116,3.877,3.877,0,0,1,2.092,2.048.6.6,0,0,1-.316.789A.591.591,0,0,1,862.614,202.327Z" transform="translate(-491.062 -68.654)" fill="rgba(0,0,0,0.2)"/>
    <path id="Trazado_7168" data-name="Trazado 7168" d="M843.6,216.545h-.06a3.081,3.081,0,0,1-2.13-1.187,3.121,3.121,0,0,1-.59-2.367.6.6,0,0,1,1.187.2,1.86,1.86,0,0,0,1.653,2.161.6.6,0,0,1-.06,1.2Z" transform="translate(-478.936 -76.807)" fill="#000e23"/>
    <path id="Trazado_7169" data-name="Trazado 7169" d="M843.6,216.545h-.06a3.081,3.081,0,0,1-2.13-1.187,3.121,3.121,0,0,1-.59-2.367.6.6,0,0,1,1.187.2,1.86,1.86,0,0,0,1.653,2.161.6.6,0,0,1-.06,1.2Z" transform="translate(-478.936 -76.807)" fill="rgba(0,0,0,0.2)"/>
    <path id="Trazado_7170" data-name="Trazado 7170" d="M877.244,232.024s-4.534,3.742-7.814.811l-13.348-15.052-.132-1.409c.966-.77,1.657-1.075,2.8-.124l10.838,9.123a1.694,1.694,0,0,0,1.916.331l7.2-4.475" transform="translate(-488.384 -78.782)" fill="#14b8a6"/>
    <path id="Trazado_7171" data-name="Trazado 7171" d="M851.644,206.92c-1.792-1.4-2.385-.894-2.78-.334-.068.094-.139.177-.053.267l2.693,4.069a14.1,14.1,0,0,0,1.514-1.623A2.871,2.871,0,0,0,851.644,206.92Z" transform="translate(-483.912 -72.778)" fill="#fff"/>
    <path id="Trazado_7172" data-name="Trazado 7172" d="M850.28,210.544l-.274-.282-2.675-4.039a.74.74,0,0,1,.03-.954,1.772,1.772,0,0,1,1.183-.823,3.445,3.445,0,0,1,2.472,1.011,3.356,3.356,0,0,1,1.586,3.009l-.034.128-.086.1c-1.529,1.822-1.664,1.826-1.939,1.841l-.263.011Zm-1.8-4.764L850.618,209c.233-.255.526-.594.8-.917a2.657,2.657,0,0,0-1.138-1.687c-.977-.759-1.412-.789-1.555-.77a.4.4,0,0,0-.237.147Z" transform="translate(-482.916 -71.787)" fill="#000e23"/>
    <path id="Trazado_7173" data-name="Trazado 7173" d="M850.28,210.544l-.274-.282-2.675-4.039a.74.74,0,0,1,.03-.954,1.772,1.772,0,0,1,1.183-.823,3.445,3.445,0,0,1,2.472,1.011,3.356,3.356,0,0,1,1.586,3.009l-.034.128-.086.1c-1.529,1.822-1.664,1.826-1.939,1.841l-.263.011Zm-1.8-4.764L850.618,209c.233-.255.526-.594.8-.917a2.657,2.657,0,0,0-1.138-1.687c-.977-.759-1.412-.789-1.555-.77a.4.4,0,0,0-.237.147Z" transform="translate(-482.916 -71.787)" fill="rgba(0,0,0,0.2)"/>
    <path id="Trazado_7174" data-name="Trazado 7174" d="M137.055,350.327a.749.749,0,0,1-.747-.755,89.733,89.733,0,0,0-.492-9.683.752.752,0,1,1,1.5-.158,90.784,90.784,0,0,1,.5,9.844.751.751,0,0,1-.752.748Z" transform="translate(-39.792 -155.652)" fill="#000e23"/>
    <path id="Trazado_7175" data-name="Trazado 7175" d="M137.055,350.327a.749.749,0,0,1-.747-.755,89.733,89.733,0,0,0-.492-9.683.752.752,0,1,1,1.5-.158,90.784,90.784,0,0,1,.5,9.844.751.751,0,0,1-.752.748Z" transform="translate(-39.792 -155.652)" fill="rgba(0,0,0,0.2)"/>
    <path id="Trazado_7176" data-name="Trazado 7176" d="M127.96,314.964c-.744.037-1.281-1.034-1.69-1.657a27.579,27.579,0,0,1-4.035-20.215c.274-1.42.856-3.032,2.239-3.453a2.883,2.883,0,0,1,2.8.9,7.527,7.527,0,0,1,1.491,2.683c2.468,6.64,3.129,14.181.537,20.771-.225.578-.469,1.206-1.341.969" transform="translate(-31.036 -124.809)" fill="#fff"/>
    <path id="Trazado_7177" data-name="Trazado 7177" d="M127.076,314.535a2.028,2.028,0,0,1-.455-.052c-1-.03-1.627-1.034-2.048-1.71-.064-.1-.124-.2-.18-.286a28.251,28.251,0,0,1-4.147-20.771c.432-2.251,1.364-3.607,2.761-4.032a3.627,3.627,0,0,1,3.558,1.089,8.165,8.165,0,0,1,1.657,2.946c2.792,7.511,2.983,15.079.534,21.308-.188.481-.59,1.5-1.675,1.5Zm-.282-1.563.117.03a.432.432,0,0,0,.177.022,2.117,2.117,0,0,0,.263-.534c2.318-5.9,2.123-13.08-.541-20.245a6.915,6.915,0,0,0-1.326-2.424,2.181,2.181,0,0,0-2.043-.7c-.823.252-1.4,1.218-1.721,2.878a26.717,26.717,0,0,0,3.926,19.655c.064.1.132.207.2.319.154.244.62.992.823,1l.12-.008Z" transform="translate(-29.788 -123.573)" fill="#000e23"/>
    <path id="Trazado_7178" data-name="Trazado 7178" d="M127.076,314.535a2.028,2.028,0,0,1-.455-.052c-1-.03-1.627-1.034-2.048-1.71-.064-.1-.124-.2-.18-.286a28.251,28.251,0,0,1-4.147-20.771c.432-2.251,1.364-3.607,2.761-4.032a3.627,3.627,0,0,1,3.558,1.089,8.165,8.165,0,0,1,1.657,2.946c2.792,7.511,2.983,15.079.534,21.308-.188.481-.59,1.5-1.675,1.5Zm-.282-1.563.117.03a.432.432,0,0,0,.177.022,2.117,2.117,0,0,0,.263-.534c2.318-5.9,2.123-13.08-.541-20.245a6.915,6.915,0,0,0-1.326-2.424,2.181,2.181,0,0,0-2.043-.7c-.823.252-1.4,1.218-1.721,2.878a26.717,26.717,0,0,0,3.926,19.655c.064.1.132.207.2.319.154.244.62.992.823,1l.12-.008Z" transform="translate(-29.788 -123.573)" fill="rgba(0,0,0,0.2)"/>
    <path id="Trazado_7179" data-name="Trazado 7179" d="M134.986,327.56a.753.753,0,0,1-.752-.722,63.26,63.26,0,0,0-1.818-12.583.753.753,0,1,1,1.462-.365,64.614,64.614,0,0,1,1.863,12.888.749.749,0,0,1-.717.782h-.038Z" transform="translate(-37.663 -139.618)" fill="#000e23"/>
    <path id="Trazado_7180" data-name="Trazado 7180" d="M134.986,327.56a.753.753,0,0,1-.752-.722,63.26,63.26,0,0,0-1.818-12.583.753.753,0,1,1,1.462-.365,64.614,64.614,0,0,1,1.863,12.888.749.749,0,0,1-.717.782h-.038Z" transform="translate(-37.663 -139.618)" fill="rgba(0,0,0,0.2)"/>
    <path id="Trazado_7181" data-name="Trazado 7181" d="M130.77,327.842a.746.746,0,0,1-.473-.169l-2.768-2.262a.75.75,0,0,1,.95-1.161l2.769,2.262a.75.75,0,0,1-.477,1.33Z" transform="translate(-34.462 -146.322)" fill="#000e23"/>
    <path id="Trazado_7182" data-name="Trazado 7182" d="M130.77,327.842a.746.746,0,0,1-.473-.169l-2.768-2.262a.75.75,0,0,1,.95-1.161l2.769,2.262a.75.75,0,0,1-.477,1.33Z" transform="translate(-34.462 -146.322)" fill="rgba(0,0,0,0.2)"/>
    <path id="Trazado_7183" data-name="Trazado 7183" d="M138.934,317.864a.7.7,0,0,1-.2-.026.75.75,0,0,1-.53-.92,9.726,9.726,0,0,0,.252-3.754.752.752,0,1,1,1.492-.192,11.171,11.171,0,0,1-.293,4.336A.753.753,0,0,1,138.934,317.864Z" transform="translate(-41.27 -138.993)" fill="#000e23"/>
    <path id="Trazado_7184" data-name="Trazado 7184" d="M138.934,317.864a.7.7,0,0,1-.2-.026.75.75,0,0,1-.53-.92,9.726,9.726,0,0,0,.252-3.754.752.752,0,1,1,1.492-.192,11.171,11.171,0,0,1-.293,4.336A.753.753,0,0,1,138.934,317.864Z" transform="translate(-41.27 -138.993)" fill="rgba(0,0,0,0.2)"/>
    <path id="Trazado_7185" data-name="Trazado 7185" d="M114.893,343.742a.749.749,0,0,1-.747-.755,131.681,131.681,0,0,0-.718-14.188.751.751,0,0,1,.669-.827.759.759,0,0,1,.827.669,132.818,132.818,0,0,1,.729,14.353.751.751,0,0,1-.752.748Z" transform="translate(-25.847 -148.744)" fill="#000e23"/>
    <path id="Trazado_7186" data-name="Trazado 7186" d="M114.893,343.742a.749.749,0,0,1-.747-.755,131.681,131.681,0,0,0-.718-14.188.751.751,0,0,1,.669-.827.759.759,0,0,1,.827.669,132.818,132.818,0,0,1,.729,14.353.751.751,0,0,1-.752.748Z" transform="translate(-25.847 -148.744)" fill="rgba(0,0,0,0.2)"/>
    <path id="Trazado_7187" data-name="Trazado 7187" d="M101.03,291.825c-1.09.057-1.871-1.511-2.472-2.42a40.326,40.326,0,0,1-5.9-29.545c.4-2.074,1.255-4.434,3.276-5.05a4.222,4.222,0,0,1,4.095,1.311,10.935,10.935,0,0,1,2.179,3.923c3.606,9.706,4.576,20.726.785,30.36-.331.846-.687,1.766-1.961,1.417" transform="translate(-12.476 -103.087)" fill="#fff"/>
    <path id="Trazado_7188" data-name="Trazado 7188" d="M100.3,291.42a2.554,2.554,0,0,1-.62-.079c-1.3-.019-2.13-1.353-2.742-2.333-.094-.15-.184-.293-.27-.425a40.927,40.927,0,0,1-6.011-30.1c.609-3.152,1.886-5.043,3.794-5.625a4.951,4.951,0,0,1,4.85,1.5,11.591,11.591,0,0,1,2.344,4.186c4.054,10.9,4.328,21.872.782,30.9-.285.725-.774,1.973-2.13,1.973Zm-.451-1.586.117.03c.515.143.654.079,1.06-.954,3.419-8.695,3.137-19.287-.785-29.838a10.4,10.4,0,0,0-2.014-3.663,3.455,3.455,0,0,0-3.336-1.116c-1.333.406-2.261,1.913-2.757,4.471a39.409,39.409,0,0,0,5.789,28.985c.094.139.188.293.29.454.387.62,1.037,1.665,1.517,1.627l.12-.008Z" transform="translate(-11.215 -101.852)" fill="#000e23"/>
    <path id="Trazado_7189" data-name="Trazado 7189" d="M100.3,291.42a2.554,2.554,0,0,1-.62-.079c-1.3-.019-2.13-1.353-2.742-2.333-.094-.15-.184-.293-.27-.425a40.927,40.927,0,0,1-6.011-30.1c.609-3.152,1.886-5.043,3.794-5.625a4.951,4.951,0,0,1,4.85,1.5,11.591,11.591,0,0,1,2.344,4.186c4.054,10.9,4.328,21.872.782,30.9-.285.725-.774,1.973-2.13,1.973Zm-.451-1.586.117.03c.515.143.654.079,1.06-.954,3.419-8.695,3.137-19.287-.785-29.838a10.4,10.4,0,0,0-2.014-3.663,3.455,3.455,0,0,0-3.336-1.116c-1.333.406-2.261,1.913-2.757,4.471a39.409,39.409,0,0,0,5.789,28.985c.094.139.188.293.29.454.387.62,1.037,1.665,1.517,1.627l.12-.008Z" transform="translate(-11.215 -101.852)" fill="rgba(0,0,0,0.2)"/>
    <path id="Trazado_7190" data-name="Trazado 7190" d="M111.869,310.462a.753.753,0,0,1-.752-.721,92.29,92.29,0,0,0-2.671-18.464.753.753,0,1,1,1.461-.364,93.925,93.925,0,0,1,2.712,18.764.749.749,0,0,1-.718.782h-.034Z" transform="translate(-22.733 -125.304)" fill="#000e23"/>
    <path id="Trazado_7191" data-name="Trazado 7191" d="M111.869,310.462a.753.753,0,0,1-.752-.721,92.29,92.29,0,0,0-2.671-18.464.753.753,0,1,1,1.461-.364,93.925,93.925,0,0,1,2.712,18.764.749.749,0,0,1-.718.782h-.034Z" transform="translate(-22.733 -125.304)" fill="rgba(0,0,0,0.2)"/>
    <path id="Trazado_7192" data-name="Trazado 7192" d="M105.705,310.86a.747.747,0,0,1-.473-.169l-4.046-3.307a.75.75,0,0,1,.95-1.161l4.046,3.306a.75.75,0,0,1-.477,1.33Z" transform="translate(-18.052 -135.093)" fill="#000e23"/>
    <path id="Trazado_7193" data-name="Trazado 7193" d="M105.705,310.86a.747.747,0,0,1-.473-.169l-4.046-3.307a.75.75,0,0,1,.95-1.161l4.046,3.306a.75.75,0,0,1-.477,1.33Z" transform="translate(-18.052 -135.093)" fill="rgba(0,0,0,0.2)"/>
    <path id="Trazado_7194" data-name="Trazado 7194" d="M117.644,296.284a.708.708,0,0,1-.2-.026.751.751,0,0,1-.53-.921,14.62,14.62,0,0,0,.379-5.621.752.752,0,1,1,1.491-.192,16.056,16.056,0,0,1-.417,6.2.753.753,0,0,1-.725.556Z" transform="translate(-28.008 -124.387)" fill="#000e23"/>
    <path id="Trazado_7195" data-name="Trazado 7195" d="M117.644,296.284a.708.708,0,0,1-.2-.026.751.751,0,0,1-.53-.921,14.62,14.62,0,0,0,.379-5.621.752.752,0,1,1,1.491-.192,16.056,16.056,0,0,1-.417,6.2.753.753,0,0,1-.725.556Z" transform="translate(-28.008 -124.387)" fill="rgba(0,0,0,0.2)"/>
    <path id="Trazado_7196" data-name="Trazado 7196" d="M954.683,265.679a.753.753,0,0,1-.751-.736l-.207-9.818a.752.752,0,0,1,1.5-.03l.207,9.818a.752.752,0,0,1-.736.767Z" transform="translate(-549.29 -102.89)" fill="#000e23"/>
    <path id="Trazado_7197" data-name="Trazado 7197" d="M954.683,265.679a.753.753,0,0,1-.751-.736l-.207-9.818a.752.752,0,0,1,1.5-.03l.207,9.818a.752.752,0,0,1-.736.767Z" transform="translate(-549.29 -102.89)" fill="rgba(0,0,0,0.2)"/>
    <path id="Trazado_7198" data-name="Trazado 7198" d="M582.288,118.19a2.419,2.419,0,0,1-.706-.109,5.953,5.953,0,0,1-2.228,2.025l4.076,4.806,1.57-5.054c-.135-.086-.3-.173-.473-.263a3.981,3.981,0,0,1-1.75-1.458,2.218,2.218,0,0,1-.417.052Z" transform="translate(-316.086 -18)" fill="#fff"/>
    <path id="Trazado_7199" data-name="Trazado 7199" d="M582.987,118.229a3.583,3.583,0,0,0-1.093-.759,2.951,2.951,0,0,1-1.221-.928,2.524,2.524,0,0,1-1.116.586,3.939,3.939,0,0,0,1.751,1.458c.165.086.334.177.473.263l-1.57,5.054-4.076-4.806a5.927,5.927,0,0,0,2.228-2.025,3.241,3.241,0,0,1-1.055-.563.259.259,0,0,0-.049-.041c-.2.41-.8,1.033-2.4,1.9l-.684.372,6.559,7.729,2.483-7.977-.222-.263Z" transform="translate(-312.859 -16.995)" fill="#000e23"/>
    <path id="Trazado_7200" data-name="Trazado 7200" d="M582.987,118.229a3.583,3.583,0,0,0-1.093-.759,2.951,2.951,0,0,1-1.221-.928,2.524,2.524,0,0,1-1.116.586,3.939,3.939,0,0,0,1.751,1.458c.165.086.334.177.473.263l-1.57,5.054-4.076-4.806a5.927,5.927,0,0,0,2.228-2.025,3.241,3.241,0,0,1-1.055-.563.259.259,0,0,0-.049-.041c-.2.41-.8,1.033-2.4,1.9l-.684.372,6.559,7.729,2.483-7.977-.222-.263Z" transform="translate(-312.859 -16.995)" fill="rgba(0,0,0,0.2)"/>
    <path id="Trazado_7201" data-name="Trazado 7201" d="M582.039,104.691a1.646,1.646,0,0,0,1.018.406c.8-.026,1.368-1,1.634-1.894a11.992,11.992,0,0,0,.342-4.066,36.374,36.374,0,0,1-4.373-.049,10.641,10.641,0,0,0-.049,2.867A4.193,4.193,0,0,0,582.039,104.691Z" transform="translate(-316.821 -6.169)" fill="#fff"/>
    <path id="Trazado_7202" data-name="Trazado 7202" d="M580.213,102.178a2.436,2.436,0,0,0,.706.109h.071a2.172,2.172,0,0,0,.417-.052,2.487,2.487,0,0,0,1.116-.586,4.581,4.581,0,0,0,1.27-2.153,13.763,13.763,0,0,0,.338-5.1l.105-.256-1.6-1.586.15,1.266a41.68,41.68,0,0,1-4.76-.086l-.583-.03-.079.579a13.27,13.27,0,0,0-.12,3.8,5.448,5.448,0,0,0,1.852,3.5.259.259,0,0,0,.049.041,3.287,3.287,0,0,0,1.055.563Zm-1.657-7.162a36.372,36.372,0,0,0,4.373.049,12,12,0,0,1-.342,4.066c-.267.9-.838,1.867-1.634,1.894a1.656,1.656,0,0,1-1.018-.406,4.176,4.176,0,0,1-1.428-2.735A10.662,10.662,0,0,1,578.556,95.017Z" transform="translate(-314.716 -2.097)" fill="#000e23"/>
    <path id="Trazado_7203" data-name="Trazado 7203" d="M580.213,102.178a2.436,2.436,0,0,0,.706.109h.071a2.172,2.172,0,0,0,.417-.052,2.487,2.487,0,0,0,1.116-.586,4.581,4.581,0,0,0,1.27-2.153,13.763,13.763,0,0,0,.338-5.1l.105-.256-1.6-1.586.15,1.266a41.68,41.68,0,0,1-4.76-.086l-.583-.03-.079.579a13.27,13.27,0,0,0-.12,3.8,5.448,5.448,0,0,0,1.852,3.5.259.259,0,0,0,.049.041,3.287,3.287,0,0,0,1.055.563Zm-1.657-7.162a36.372,36.372,0,0,0,4.373.049,12,12,0,0,1-.342,4.066c-.267.9-.838,1.867-1.634,1.894a1.656,1.656,0,0,1-1.018-.406,4.176,4.176,0,0,1-1.428-2.735A10.662,10.662,0,0,1,578.556,95.017Z" transform="translate(-314.716 -2.097)" fill="rgba(0,0,0,0.2)"/>
    <path id="Trazado_7204" data-name="Trazado 7204" d="M686.125,198.311l5.2-.064-.568,1.654s-4.485-.383-4.831.36S686.125,198.311,686.125,198.311Z" transform="translate(-382.4 -67.937)" fill="#fff"/>
    <path id="Trazado_7205" data-name="Trazado 7205" d="M684.806,199.969a.675.675,0,0,1-.21-.034c-.628-.207-.545-.752-.128-2.8l.1-.5,6.6-.079-1.018,2.968-.492-.041a13.925,13.925,0,0,0-4.256.094.68.68,0,0,1-.6.4Zm.8-2.085c-.023.12-.045.24-.064.357a14.945,14.945,0,0,1,3.738-.06l.117-.342Z" transform="translate(-381.359 -66.882)" fill="#000e23"/>
    <path id="Trazado_7206" data-name="Trazado 7206" d="M684.806,199.969a.675.675,0,0,1-.21-.034c-.628-.207-.545-.752-.128-2.8l.1-.5,6.6-.079-1.018,2.968-.492-.041a13.925,13.925,0,0,0-4.256.094.68.68,0,0,1-.6.4Zm.8-2.085c-.023.12-.045.24-.064.357a14.945,14.945,0,0,1,3.738-.06l.117-.342Z" transform="translate(-381.359 -66.882)" fill="rgba(0,0,0,0.2)"/>
    <path id="Trazado_7207" data-name="Trazado 7207" d="M529.511,174.252a1.1,1.1,0,0,0-1.067.627l3.655.38a2.155,2.155,0,0,0,2.325-1.744l.053-.285,6.811-11.528-2.686-1.48-5.8,14.237-3.287-.21Z" transform="translate(-284.373 -44.251)" fill="#fff"/>
    <path id="Trazado_7208" data-name="Trazado 7208" d="M539.885,159.913a.631.631,0,0,0-.864.222l-.011.015L532.2,171.678l-.053.285a2.158,2.158,0,0,1-2.325,1.744l-3.655-.38a1.169,1.169,0,0,1,.222-.312,1.1,1.1,0,0,1,.845-.316l3.287.21,5.8-14.237.026-.068a.631.631,0,1,0-1.169-.477L529.693,171.6l-2.382-.15a2.372,2.372,0,0,0-2.517,2.476l.026.541,4.865.507c.117.011.233.019.349.019a3.428,3.428,0,0,0,3.351-2.788l.011-.068,6.706-11.351a.631.631,0,0,0-.222-.864Z" transform="translate(-282.098 -42.702)" fill="#000e23"/>
    <path id="Trazado_7209" data-name="Trazado 7209" d="M539.885,159.913a.631.631,0,0,0-.864.222l-.011.015L532.2,171.678l-.053.285a2.158,2.158,0,0,1-2.325,1.744l-3.655-.38a1.169,1.169,0,0,1,.222-.312,1.1,1.1,0,0,1,.845-.316l3.287.21,5.8-14.237.026-.068a.631.631,0,1,0-1.169-.477L529.693,171.6l-2.382-.15a2.372,2.372,0,0,0-2.517,2.476l.026.541,4.865.507c.117.011.233.019.349.019a3.428,3.428,0,0,0,3.351-2.788l.011-.068,6.706-11.351a.631.631,0,0,0-.222-.864Z" transform="translate(-282.098 -42.702)" fill="rgba(0,0,0,0.2)"/>
    <path id="Trazado_7210" data-name="Trazado 7210" d="M702.9,188.7c-.808.274-2.509,2.081-3.5,3.325l-.879,1.379.229.139.057.06a.478.478,0,0,0,.316.1l3.963-5H702.9Z" transform="translate(-390.317 -61.991)" fill="#000e23"/>
    <path id="Trazado_7211" data-name="Trazado 7211" d="M702.9,188.7c-.808.274-2.509,2.081-3.5,3.325l-.879,1.379.229.139.057.06a.478.478,0,0,0,.316.1l3.963-5H702.9Z" transform="translate(-390.317 -61.991)" fill="rgba(0,0,0,0.2)"/>
    <path id="Trazado_7212" data-name="Trazado 7212" d="M701.39,185.79a1.841,1.841,0,0,0-1.536-.432l-.116.019c-1.476.394-3.787,3.235-4.238,3.8l-1.623,2.548,1.2.733a1.7,1.7,0,0,0,1.12.421h.075a1.217,1.217,0,0,0,.92-.44l4.463-5.632.023-.173a1.062,1.062,0,0,0-.286-.838Zm-5.473,5.726-.057-.06-.229-.139.879-1.379c.988-1.244,2.69-3.051,3.5-3.325h.188l-3.963,5a.464.464,0,0,1-.316-.1Z" transform="translate(-387.425 -59.902)" fill="#000e23"/>
    <path id="Trazado_7213" data-name="Trazado 7213" d="M701.39,185.79a1.841,1.841,0,0,0-1.536-.432l-.116.019c-1.476.394-3.787,3.235-4.238,3.8l-1.623,2.548,1.2.733a1.7,1.7,0,0,0,1.12.421h.075a1.217,1.217,0,0,0,.92-.44l4.463-5.632.023-.173a1.062,1.062,0,0,0-.286-.838Zm-5.473,5.726-.057-.06-.229-.139.879-1.379c.988-1.244,2.69-3.051,3.5-3.325h.188l-3.963,5a.464.464,0,0,1-.316-.1Z" transform="translate(-387.425 -59.902)" fill="rgba(0,0,0,0.2)"/>
    <path id="Trazado_7214" data-name="Trazado 7214" d="M660.067,200.35h6.379c-.03-.041-.071-.09-.117-.147-.718-.462-3.189-.676-4.778-.68l-1.627.169.034.267-.011.083a.449.449,0,0,0,.12.3Z" transform="translate(-366.275 -68.732)" fill="#000e23"/>
    <path id="Trazado_7215" data-name="Trazado 7215" d="M660.067,200.35h6.379c-.03-.041-.071-.09-.117-.147-.718-.462-3.189-.676-4.778-.68l-1.627.169.034.267-.011.083a.449.449,0,0,0,.12.3Z" transform="translate(-366.275 -68.732)" fill="rgba(0,0,0,0.2)"/>
    <path id="Trazado_7216" data-name="Trazado 7216" d="M664.8,197.143c-1.225-.913-4.887-.958-5.609-.958l-3.005.308.173,1.394a1.7,1.7,0,0,0,.413,1.2,1.217,1.217,0,0,0,.917.447h7.186l.15-.09a1.053,1.053,0,0,0,.477-.748,1.838,1.838,0,0,0-.616-1.473l-.09-.079Zm-7.2.469,1.626-.169c1.589,0,4.061.214,4.779.68a1.157,1.157,0,0,1,.117.147h-6.379a.469.469,0,0,1-.12-.3l.011-.083-.034-.267Z" transform="translate(-363.947 -66.653)" fill="#000e23"/>
    <path id="Trazado_7217" data-name="Trazado 7217" d="M664.8,197.143c-1.225-.913-4.887-.958-5.609-.958l-3.005.308.173,1.394a1.7,1.7,0,0,0,.413,1.2,1.217,1.217,0,0,0,.917.447h7.186l.15-.09a1.053,1.053,0,0,0,.477-.748,1.838,1.838,0,0,0-.616-1.473l-.09-.079Zm-7.2.469,1.626-.169c1.589,0,4.061.214,4.779.68a1.157,1.157,0,0,1,.117.147h-6.379a.469.469,0,0,1-.12-.3l.011-.083-.034-.267Z" transform="translate(-363.947 -66.653)" fill="rgba(0,0,0,0.2)"/>
    <path id="Trazado_7218" data-name="Trazado 7218" d="M576.993,129.919l-1.581-.289,1.491.12c-.973-2.014-3.347-6.2-5.068-7.687a15.442,15.442,0,0,0-3.761-1.913c-.871.041-1.627,4.531-2.618,4.3s-3.486-3.509-3.978-4.253a5.868,5.868,0,0,0-5.162,1.518,7.711,7.711,0,0,0-1.334,1.815c-1.912,3.464-2.066,7.335-4.091,11.028l5.53,2.514s.526-.981,1.07-2.018c.023.924.042,1.653.042,2,0,1.555-2,7.038-2.742,9.337-.019.064-.042.128-.056.192a3.366,3.366,0,0,0,3.313,4.223l1.961-1.06,20.2-14.488-3.212-5.332Z" transform="translate(-298.355 -19.249)" fill="#14b8a6"/>
    <path id="Trazado_7219" data-name="Trazado 7219" d="M610.428,154.094a16.8,16.8,0,0,0-.041,3.04Z" transform="translate(-335.375 -40.433)" fill="#fff"/>
    <path id="Trazado_7220" data-name="Trazado 7220" d="M609.335,156.718a.622.622,0,0,1-.6-.44,14.1,14.1,0,0,1,.019-3.276.632.632,0,0,1,1.259.109,15.88,15.88,0,0,0-.068,2.8.636.636,0,0,1-.428.785.623.623,0,0,1-.184.026Z" transform="translate(-334.331 -39.394)" fill="#000e23"/>
    <path id="Trazado_7221" data-name="Trazado 7221" d="M609.335,156.718a.622.622,0,0,1-.6-.44,14.1,14.1,0,0,1,.019-3.276.632.632,0,0,1,1.259.109,15.88,15.88,0,0,0-.068,2.8.636.636,0,0,1-.428.785.623.623,0,0,1-.184.026Z" transform="translate(-334.331 -39.394)" fill="rgba(0,0,0,0.2)"/>
    <path id="Trazado_7222" data-name="Trazado 7222" d="M620.419,134.846A7.36,7.36,0,0,0,622.8,133.6c1.867-1.451,4.268-11.16,4.587-13.433l-.44-.184c-.15.237-.364.624-.609,1.063-1.413,2.559-4.038,7.323-7.911,8.236a.614.614,0,0,1-.143.015l.023,5.471a.625.625,0,0,1,.331.09,2.16,2.16,0,0,0,1.777-.011Z" transform="translate(-340.339 -19.186)" fill="#fff"/>
    <path id="Trazado_7223" data-name="Trazado 7223" d="M627.639,117.455l-.045-.365-1.39-.583a.983.983,0,0,0-.661-.071,1.123,1.123,0,0,0-.6.492c-.192.274-.436.714-.744,1.274-1.319,2.386-3.768,6.831-7.1,7.62a.633.633,0,0,0-.47.759.626.626,0,0,0,.616.485.614.614,0,0,0,.143-.015c3.873-.913,6.5-5.677,7.911-8.236.241-.44.455-.823.609-1.063l.44.184c-.319,2.273-2.72,11.982-4.587,13.433a7.391,7.391,0,0,1-2.385,1.244,2.16,2.16,0,0,1-1.777.011.632.632,0,0,0-.658,1.078,2.583,2.583,0,0,0,1.371.36,5,5,0,0,0,1.427-.244,8.617,8.617,0,0,0,2.8-1.458c2.581-2.006,5.214-14,5.1-14.913Z" transform="translate(-339.294 -16.957)" fill="#000e23"/>
    <path id="Trazado_7224" data-name="Trazado 7224" d="M627.639,117.455l-.045-.365-1.39-.583a.983.983,0,0,0-.661-.071,1.123,1.123,0,0,0-.6.492c-.192.274-.436.714-.744,1.274-1.319,2.386-3.768,6.831-7.1,7.62a.633.633,0,0,0-.47.759.626.626,0,0,0,.616.485.614.614,0,0,0,.143-.015c3.873-.913,6.5-5.677,7.911-8.236.241-.44.455-.823.609-1.063l.44.184c-.319,2.273-2.72,11.982-4.587,13.433a7.391,7.391,0,0,1-2.385,1.244,2.16,2.16,0,0,1-1.777.011.632.632,0,0,0-.658,1.078,2.583,2.583,0,0,0,1.371.36,5,5,0,0,0,1.427-.244,8.617,8.617,0,0,0,2.8-1.458c2.581-2.006,5.214-14,5.1-14.913Z" transform="translate(-339.294 -16.957)" fill="rgba(0,0,0,0.2)"/>
    <path id="Trazado_7225" data-name="Trazado 7225" d="M608.248,174.4l-.319-4.449-8.859-.695.5-.233s-9.9-11.964-13.565-12.31c-3.186-.3-19.971,8.7-24.317,11.059a2.831,2.831,0,0,0-1.413,3.2c.421,1.545,2.3,3.19,8.37,3.19a17.886,17.886,0,0,0,2.731-.18l36.865.41Zm-16.03-5.677-9.26-.725a23.182,23.182,0,0,0,3.054-3.551l-2.934-2.022Z" transform="translate(-304.144 -42.06)" fill="#000e23"/>
    <path id="Trazado_7226" data-name="Trazado 7226" d="M608.248,174.4l-.319-4.449-8.859-.695.5-.233s-9.9-11.964-13.565-12.31c-3.186-.3-19.971,8.7-24.317,11.059a2.831,2.831,0,0,0-1.413,3.2c.421,1.545,2.3,3.19,8.37,3.19a17.886,17.886,0,0,0,2.731-.18l36.865.41Zm-16.03-5.677-9.26-.725a23.182,23.182,0,0,0,3.054-3.551l-2.934-2.022Z" transform="translate(-304.144 -42.06)" fill="rgba(0,0,0,0.2)"/>
    <path id="Trazado_7227" data-name="Trazado 7227" d="M643.227,107.569l-.789,3.292c.184-.026.387-.057.579-.086a3.139,3.139,0,0,0,.428-1.875,3.319,3.319,0,0,0-.222-1.33Z" transform="translate(-355.382 -11.452)" fill="#fff"/>
    <path id="Trazado_7228" data-name="Trazado 7228" d="M643.622,106.534s.03-.011.045-.019l-.222-.59.173.6Z" transform="translate(-356.009 -10.428)" fill="#fff"/>
    <path id="Trazado_7229" data-name="Trazado 7229" d="M641.52,104.312a1.4,1.4,0,0,0-1.236-.158.768.768,0,0,0-.627.646l-1.06,4.423-.034.417.225.207a.615.615,0,0,0,.522.18,12.653,12.653,0,0,0,1.732-.218l.143-.023.117-.083a3.741,3.741,0,0,0,.988-3.017c-.045-1.274-.282-2-.774-2.367Zm-1.5,4.374.789-3.292a3.316,3.316,0,0,1,.222,1.33,3.139,3.139,0,0,1-.428,1.875c-.2.03-.394.06-.578.086Zm.383-3.912.222.59s-.03.011-.045.019l-.173-.605Z" transform="translate(-352.968 -9.278)" fill="#000e23"/>
    <path id="Trazado_7230" data-name="Trazado 7230" d="M641.52,104.312a1.4,1.4,0,0,0-1.236-.158.768.768,0,0,0-.627.646l-1.06,4.423-.034.417.225.207a.615.615,0,0,0,.522.18,12.653,12.653,0,0,0,1.732-.218l.143-.023.117-.083a3.741,3.741,0,0,0,.988-3.017c-.045-1.274-.282-2-.774-2.367Zm-1.5,4.374.789-3.292a3.316,3.316,0,0,1,.222,1.33,3.139,3.139,0,0,1-.428,1.875c-.2.03-.394.06-.578.086Zm.383-3.912.222.59s-.03.011-.045.019l-.173-.605Z" transform="translate(-352.968 -9.278)" fill="rgba(0,0,0,0.2)"/>
    <path id="Trazado_7231" data-name="Trazado 7231" d="M649.948,109.88a.625.625,0,0,1-.338-.1.632.632,0,0,1-.192-.872,2.233,2.233,0,0,0,.342-1.62.63.63,0,1,1,1.232-.263,3.469,3.469,0,0,1-.515,2.566.629.629,0,0,1-.534.289Z" transform="translate(-359.668 -10.802)" fill="#000e23"/>
    <path id="Trazado_7232" data-name="Trazado 7232" d="M649.948,109.88a.625.625,0,0,1-.338-.1.632.632,0,0,1-.192-.872,2.233,2.233,0,0,0,.342-1.62.63.63,0,1,1,1.232-.263,3.469,3.469,0,0,1-.515,2.566.629.629,0,0,1-.534.289Z" transform="translate(-359.668 -10.802)" fill="rgba(0,0,0,0.2)"/>
    <path id="Trazado_7233" data-name="Trazado 7233" d="M632.93,104.644a.64.64,0,0,1-.545-.312,2.593,2.593,0,0,1-.169-2.157,3.242,3.242,0,0,1,1.469-1.713.633.633,0,0,1,.616,1.1,2,2,0,0,0-.894,1.033,1.322,1.322,0,0,0,.068,1.094.631.631,0,0,1-.222.864.621.621,0,0,1-.319.086Z" transform="translate(-348.917 -6.975)" fill="#000e23"/>
    <path id="Trazado_7234" data-name="Trazado 7234" d="M632.93,104.644a.64.64,0,0,1-.545-.312,2.593,2.593,0,0,1-.169-2.157,3.242,3.242,0,0,1,1.469-1.713.633.633,0,0,1,.616,1.1,2,2,0,0,0-.894,1.033,1.322,1.322,0,0,0,.068,1.094.631.631,0,0,1-.222.864.621.621,0,0,1-.319.086Z" transform="translate(-348.917 -6.975)" fill="rgba(0,0,0,0.2)"/>
    <path id="Trazado_7235" data-name="Trazado 7235" d="M580.642,89.748a1.316,1.316,0,0,1,.387.65c-.583-1.552-2.19-1.274-3.607-1a3.561,3.561,0,0,0-2.949,2.6,4.565,4.565,0,0,0,.733,4.344,1.878,1.878,0,0,0,1.123.383s-.5-1.06-.766-1.559.394-.286.394-.286-.12.124,1.431-.222a8.565,8.565,0,0,0,3.381-1.48,1.6,1.6,0,0,0,.357-.643.327.327,0,0,0,.042.034c.537.278.977,2.615.977,2.615a5.028,5.028,0,0,0,.609-2.4,3.7,3.7,0,0,0-2.107-3.04Z" transform="translate(-312.873)" fill="#000e23"/>
    <path id="Trazado_7236" data-name="Trazado 7236" d="M580.642,89.748a1.316,1.316,0,0,1,.387.65c-.583-1.552-2.19-1.274-3.607-1a3.561,3.561,0,0,0-2.949,2.6,4.565,4.565,0,0,0,.733,4.344,1.878,1.878,0,0,0,1.123.383s-.5-1.06-.766-1.559.394-.286.394-.286-.12.124,1.431-.222a8.565,8.565,0,0,0,3.381-1.48,1.6,1.6,0,0,0,.357-.643.327.327,0,0,0,.042.034c.537.278.977,2.615.977,2.615a5.028,5.028,0,0,0,.609-2.4,3.7,3.7,0,0,0-2.107-3.04Z" transform="translate(-312.873)" fill="rgba(0,0,0,0.2)"/>
  </g>
</svg>